<svg xmlns="http://www.w3.org/2000/svg" viewBox="0 0 750 500"><g id="freepik--background-complete--inject-181"><path d="M105.19,157.35c6.31,0,163.83-1.09,208.32-1.09,3.12,0-.82-5.39-2.53-5.77-5.47-1.19-11.17-1.26-16.73-1.83a54.64,54.64,0,0,1-15.95-4c-4.37-1.84-8.74-4-13.48-4.72-9.17-1.44-17.21,3.53-25.81,5.72a19.44,19.44,0,0,1-15.62-2.13c-4-2.39-7.59-5.25-11.75-7.35a64.41,64.41,0,0,0-51.47-2.36,59.48,59.48,0,0,0-11.26,5.76c-4.2,2.76-7.82,6.28-12,9-9.33,6-20.87,4.08-31,7.54C105.28,156.3,104.65,157.35,105.19,157.35Z" style="fill:#ebebeb"></path><path d="M68.4,84.4c6.09,0,108.62.67,115.06.47.47,0,.72-.7.26-.93-4.07-2-8.67-1.6-12.9-3-2.48-.83-4-2.46-5.73-4.32a11.81,11.81,0,0,0-5.33-3.48,11.23,11.23,0,0,0-5.81-.19c-2.08.5-3.89,1.69-5.87,2.44-4.93,1.86-9.72.09-13.23-3.55-2.9-3-5.75-5.84-9.7-7.46a12.91,12.91,0,0,0-10.27-.14c-3.76,1.7-6.34,5.13-9.87,7.19-4.19,2.45-9.2,1.87-13.82,2.61S83,78.64,79,80.89a8.77,8.77,0,0,1-4.43,1.37c-.9,0-1.79-.27-2.69-.38-1.4-.18-2.72-.14-3.66,1C68,83.19,68,84.4,68.4,84.4Z" style="fill:#ebebeb"></path><path d="M346.53,95.24c6.09,0,108.62.68,115.07.47.46,0,.71-.69.25-.92-4.06-2-8.67-1.61-12.89-3-2.49-.84-4-2.46-5.74-4.32A11.86,11.86,0,0,0,437.89,84a11.34,11.34,0,0,0-5.81-.18c-2.08.5-3.89,1.69-5.87,2.44-4.93,1.86-9.71.09-13.23-3.55-2.9-3-5.75-5.84-9.69-7.46A12.9,12.9,0,0,0,393,75.06c-3.76,1.7-6.34,5.13-9.87,7.19-4.19,2.45-9.2,1.87-13.82,2.61s-8.18,4.63-12.23,6.87a8.67,8.67,0,0,1-4.43,1.37,24.86,24.86,0,0,1-2.69-.38c-1.39-.17-2.72-.13-3.66,1C346.08,94,346.13,95.24,346.53,95.24Z" style="fill:#ebebeb"></path><path d="M566.39,172.79c6.1,0,108.63.68,115.07.47a.5.5,0,0,0,.25-.92c-4.06-2-8.67-1.61-12.89-3-2.48-.84-4-2.46-5.73-4.32a11.89,11.89,0,0,0-5.34-3.49,11.3,11.3,0,0,0-5.8-.18c-2.08.5-3.89,1.69-5.87,2.44-4.93,1.86-9.72.09-13.23-3.55-2.9-3-5.76-5.84-9.7-7.46a12.83,12.83,0,0,0-10.27-.14c-3.76,1.7-6.34,5.13-9.87,7.19-4.19,2.45-9.2,1.87-13.82,2.61S581,167,577,169.28a8.61,8.61,0,0,1-4.42,1.37,24.18,24.18,0,0,1-2.69-.38c-1.4-.17-2.72-.13-3.66,1C566,171.59,566,172.79,566.39,172.79Z" style="fill:#ebebeb"></path><path d="M425.29,58.51H599.38c.71,0,1-.75.26-1.08-6.23-2.92-13.22-2.17-19.68-4.19-3.8-1.2-6.16-3.62-8.84-6.39a18,18,0,0,0-8.21-5.12,17.17,17.17,0,0,0-8.83-.1c-3.15.82-5.85,2.69-8.84,3.89-7.43,3-14.75.45-20.21-5-4.5-4.47-8.92-8.68-15-11-5.06-1.95-10.63-2.26-15.61.11-5.66,2.71-9.47,8-14.77,11.24-6.28,3.85-13.91,3.13-20.91,4.39s-12.84,4.29-18.93,7.83a13.13,13.13,0,0,1-6.67,2.22c-1.38,0-2.74-.35-4.1-.49-2.13-.22-4.14-.12-5.53,1.68C423.21,56.94,421.19,58.51,425.29,58.51Z" style="fill:#ebebeb"></path><path d="M156.82,356.27s70.91-55.66,86.07-62.93c6.48-3.1,71.27-89,74.91-94,5.68-7.83,24.47-16,34.48-30.39,2.36-3.39,17.38-27.57,18.64-29.15,3.79-4.81,18.57-3.74,26.11-3.74,8.22,0,95.27,125.29,101.82,135.83s42,48.57,53,52.43,41.29,32,41.29,32Z" style="fill:#ebebeb"></path><path d="M331,356.27H593.18s-9.06-8.41-19.07-16.65c-.57-.49-1.14-.95-1.73-1.42l-.86-.7c-.58-.47-1.15-.94-1.73-1.39l-.87-.68c-.87-.69-1.73-1.35-2.58-2-1.14-.87-2.26-1.72-3.36-2.51s-2.17-1.55-3.19-2.23c-.52-.35-1-.69-1.52-1s-1-.62-1.45-.91l-1.36-.8c-.45-.25-.88-.48-1.29-.68a17.5,17.5,0,0,0-2.28-1c-.34-.12-.71-.27-1.1-.45s-.8-.4-1.23-.65c-.65-.37-1.35-.8-2.09-1.3-.49-.34-1-.69-1.52-1.07l-1.62-1.22c-6.14-4.74-14.07-12.27-21.65-20.08-2.07-2.12-4.1-4.27-6.07-6.39q-1-1-2-2.1l-2.81-3.1c-.61-.67-1.2-1.35-1.78-2-.87-1-1.71-1.95-2.52-2.9q-.81-.93-1.56-1.83c-1.76-2.11-3.31-4-4.57-5.68-.36-.47-.7-.92-1-1.35-.62-.87-1.14-1.64-1.56-2.29C492.3,261.35,405.25,136.05,397,136.05c0,0,15.24,68.2,15.05,72.86s2.38,37.36,1.94,40.83c-.46,3.7-.95,24.21-2.47,26C410.44,277,357.4,330.31,331,356.27Zm127.6-86.72c-.24-1.37,5.81-16.66,6.58-17.44s8.7-.82,9.13-.82,2.72-5.42,3.15-5.32a24.55,24.55,0,0,1,3.49,2.32c.43.41-1.28,9.13-2.09,9.46s-6.51,11.4-7.37,11.8S458.93,271.35,458.61,269.55Z" style="opacity:0.1"></path><path d="M685.43,356.29s-51.19-70.88-61.63-77.23c-8-4.85-30.32-45.28-46.52-73.52-2-3.43-9.43-.62-11.22-3.79-6.07-10.71-11-19.61-13.51-24.19-5.18-9.35-35-5-39.85,0-2.5,2.58-20.19,40.72-31.45,58.79-3.61,5.81-27.37,9.52-37.13,12.5-9.42,2.88-34.72,57.73-42,61.71-40.47,22-50.47,41.71-58.51,45.71H685.43Z" style="fill:#dbdbdb"></path><path d="M685.43,356.27v0a0,0,0,0,0,0,0Z" style="opacity:0.4"></path><path d="M685.43,356.27v0l0,0Z" style="opacity:0.2"></path><path d="M685.41,356.27H481.77c12.3-9.4,38.52-29.75,40.81-34.12,3-5.72,6.91-47.12,8-52.61s22-38.28,22.84-44.19-2.58-48.93-2.65-49.82h0s0,0,0,0a1.3,1.3,0,0,1,.22.19,2.68,2.68,0,0,1,.26.23,2.72,2.72,0,0,0,.24.24l.21.24a3.11,3.11,0,0,1,.23.28s.06.07.08.11a1.74,1.74,0,0,1,.19.26,1.63,1.63,0,0,0,.11.17l.17.29c.11.22.24.43.37.67s.27.48.4.73l.44.78.46.83c2.75,5,6.91,12.47,11.84,21.18a1.66,1.66,0,0,0,.22.32,1.39,1.39,0,0,0,.23.25,1.7,1.7,0,0,0,.33.27l.27.17s.67,20.73.53,22.58-6.16,15-6.52,17.87.54,13.86,0,16.22c-.34,1.37-6.35,15.77-7.93,19.31-.44.95,4.32.32,4.45.32.6,0,6.23-12.81,7.31-13.73s2-18.14,2.73-19.45,8.08-15.56,9-17.14.6-23.21.6-23.21c3,5.29,6.3,11,9.63,16.86l2.51,4.39c.28.48.56,1,.84,1.47l2.32,4q1.59,2.76,3.17,5.47l1.58,2.71,1.57,2.66q.78,1.34,1.56,2.64c2.06,3.49,4.09,6.84,6,10,.49.8,1,1.58,1.46,2.34,3.71,5.92,7.11,11,10,14.78.47.61.92,1.18,1.36,1.72.3.37.59.72.88,1.05s.34.4.51.58c.51.57,1,1.07,1.45,1.5,0,0-18,15.34-20.61,19.7s-9.1,32-11.18,35.14-15.87,15.87-15.31,16.9,26.06-5.16,28.94-11.12,9-28.55,11.89-31.62c2.17-2.35,12.54-12.59,18.16-17.44C658.08,317.69,684.39,355.25,685.41,356.27Z" style="opacity:0.1"></path><path d="M449.72,356.27s-81.81-40.11-95.19-45.35c-5.72-2.23-64.93-64.14-68.15-67.75-5-5.64-21.59-11.55-30.43-21.91-2.08-2.44-15.34-19.86-16.45-21-3.35-3.47-16.39-2.7-23.05-2.7-7.25,0-62.84,90.3-68.63,97.9s-37.11,35-46.81,37.78-36.44,23-36.44,23Z" style="fill:#c7c7c7"></path><path d="M224.88,298.21c-1.34-1.26-1.77-16-2.18-18.71-.38-2.51-19.36-26.08-19.53-29.43s13.28-52.51,13.28-52.51c-7.25,0-62.84,90.31-68.63,97.9-.36.46-.82,1-1.37,1.64-.28.32-.57.64-.89,1-1.12,1.2-2.48,2.57-4,4.09l-1.39,1.32c-.71.68-1.45,1.38-2.22,2.09-.51.47-1,1-1.57,1.44-.8.74-1.63,1.48-2.48,2.24-.56.51-1.14,1-1.72,1.52-1.73,1.52-3.53,3.07-5.36,4.6a192.74,192.74,0,0,1-19.1,14.47l-1.43.88-1.35.77c-.65.36-1.27.67-1.84.94-.38.18-.74.32-1.09.46a8.59,8.59,0,0,1-1,.33,18.51,18.51,0,0,0-2,.72c-.36.15-.75.31-1.14.49l-1.2.58c-.41.21-.85.42-1.28.65l-1.34.72c-.9.5-1.85,1-2.81,1.61s-2,1.18-3,1.81L86,341.25l-.76.49-1.53,1-.77.51c-.51.33-1,.67-1.52,1-8.83,5.94-16.83,12-16.83,12H296C272.68,337.56,225.86,299.14,224.88,298.21ZM172,293.77c-.76-.29-5.8-8.22-6.51-8.5s-2.22-6.52-1.84-6.82a21.63,21.63,0,0,1,3.08-1.67c.38-.07,2.41,3.83,2.78,3.83s7.38,0,8.05.59,6,11.59,5.82,12.57C183.06,295.07,172.71,294.06,172,293.77Z" style="opacity:0.1"></path></g><g id="freepik--Floor--inject-181"><path d="M58.88,356.29c202.53-.61,429.71-.62,632.24,0-202.53.62-429.71.61-632.24,0Z" style="fill:#263238"></path><path d="M58.88,430.23c202.53-.61,429.71-.62,632.24,0-202.53.62-429.71.61-632.24,0Z" style="fill:#263238"></path></g><g id="freepik--Trees--inject-181"><path d="M66.74,356.29h65.53l-7.67-33.84a43.39,43.39,0,0,1-20.93-6.54L124,319.69l-9.37-41.35a38.06,38.06,0,0,1-8.34-5.32l7.68,2.43-1.24-5.51a39.85,39.85,0,0,1-11.56-7.64l10.77,4.2-12.4-54.74-7,30.93,6.29-1.57A46.18,46.18,0,0,1,92,244.89L82,289.21l7.3-1.82a47.7,47.7,0,0,1-7.84,4.25l-7,30.69,14.24-3.55a52.22,52.22,0,0,1-15,6.77l-1.21,5.34,21.87-5.46a51.82,51.82,0,0,1-22.49,8.2l-1.74,7.66,7.28-1.82a47.83,47.83,0,0,1-7.83,4.25Z" style="fill:#455a64"></path><path d="M78.8,312.5c3.63,1.39,17,6.85,20,8.45,0-.61,0-1.22,0-1.84q-4.86-2.85-9.74-5.68c-3.48-2-7.23-3.84-10.48-6.23-.16-.11-.07-.44.15-.35a86.81,86.81,0,0,1,10.25,5.67c3.3,1.93,6.57,3.93,9.82,5.94,0-4.68,0-9.35.06-14a111.05,111.05,0,0,1-15.3-7.78c-.17-.1-.06-.41.14-.33a113.55,113.55,0,0,1,15.17,7.48c0-2.43-.08-21.14.52-44.84-3.18-1.6-6.46-3-9.64-4.63-.21-.11-.06-.47.16-.39,3.23,1.26,6.34,2.76,9.51,4.15.17-6.45.42-12.91.81-19.35a.17.17,0,0,1,.33,0c.45,12,.41,35.17.26,47.16,3.3-2.63,6.82-5,10.17-7.51.13-.1.26.12.13.22-3.51,2.67-6.79,5.63-10.31,8.29l0,2c3.58-1.63,7.21-3.15,10.82-4.7.29-.12.54.28.25.42-3.68,1.77-7.35,3.56-11.08,5.23-.08,5.94-.62,27.38-.85,37.75q10.13-5.11,20.4-10c.26-.12.49.24.23.39a214,214,0,0,1-20.64,10.37c-.19,8.62-.36,18.84-.48,27.45a.41.41,0,0,1-.81,0c.12-11,.14-23.58.17-34.57-3.56-.88-17-6.64-20.2-8.22C78.22,312.94,78.45,312.37,78.8,312.5Z" style="fill:#37474f"></path><path d="M534,356.29h65.53l-7.67-33.84A43.39,43.39,0,0,1,571,315.91l20.31,3.78-9.37-41.35a38.06,38.06,0,0,1-8.34-5.32l7.68,2.43L580,269.94a39.85,39.85,0,0,1-11.56-7.64l10.77,4.2-12.4-54.74-7,30.93,6.29-1.57a46.18,46.18,0,0,1-6.79,3.77l-10.06,44.32,7.3-1.82a48.25,48.25,0,0,1-7.84,4.25l-7,30.69L556,318.78a52.22,52.22,0,0,1-15,6.77l-1.21,5.34,21.87-5.46a51.82,51.82,0,0,1-22.49,8.2l-1.74,7.66,7.28-1.82a47.83,47.83,0,0,1-7.83,4.25Z" style="fill:#37474f"></path><path d="M546.09,312.5c3.63,1.39,17,6.85,19.95,8.45,0-.61,0-1.22,0-1.84q-4.86-2.85-9.74-5.68c-3.48-2-7.23-3.84-10.48-6.23-.16-.11-.07-.44.15-.35a86.81,86.81,0,0,1,10.25,5.67c3.3,1.93,6.57,3.93,9.82,5.94,0-4.68,0-9.35.06-14a111.05,111.05,0,0,1-15.3-7.78c-.17-.1-.06-.41.14-.33a112.84,112.84,0,0,1,15.16,7.48c0-2.43-.07-21.14.53-44.84-3.18-1.6-6.46-3-9.64-4.63-.21-.11-.06-.47.16-.39,3.23,1.26,6.34,2.76,9.51,4.15.17-6.45.42-12.91.81-19.35a.17.17,0,0,1,.33,0c.45,12,.41,35.17.26,47.16,3.3-2.63,6.82-5,10.17-7.51.13-.1.26.12.13.22-3.51,2.67-6.79,5.63-10.31,8.29l0,2c3.58-1.63,7.21-3.15,10.82-4.7.29-.12.54.28.25.42-3.68,1.77-7.35,3.56-11.08,5.23-.08,5.94-.62,27.38-.85,37.75q10.13-5.11,20.4-10c.26-.12.49.24.23.39a214,214,0,0,1-20.64,10.37c-.19,8.62-.37,18.84-.48,27.45a.41.41,0,0,1-.81,0c.12-11,.14-23.58.17-34.57-3.56-.88-17-6.64-20.2-8.22C545.51,312.94,545.74,312.37,546.09,312.5Z" style="fill:#455a64"></path><path d="M321,356.29h65.54l-7.67-33.84a43.45,43.45,0,0,1-20.94-6.54l20.31,3.78-9.37-41.35A38.06,38.06,0,0,1,360.5,273l7.68,2.43-1.24-5.51a40,40,0,0,1-11.56-7.64l10.77,4.2-12.4-54.74-7,30.93,6.3-1.57a46.7,46.7,0,0,1-6.8,3.77l-10.06,44.32,7.3-1.82a47.7,47.7,0,0,1-7.84,4.25l-7,30.69,14.24-3.55a52.22,52.22,0,0,1-15,6.77l-1.21,5.34,21.88-5.46a51.89,51.89,0,0,1-22.5,8.2l-1.73,7.66,7.28-1.82a48.25,48.25,0,0,1-7.84,4.25Z" style="fill:#455a64"></path><path d="M333,312.5c3.63,1.39,17.05,6.85,20,8.45,0-.61,0-1.22,0-1.84q-4.86-2.85-9.74-5.68c-3.48-2-7.22-3.84-10.47-6.23-.16-.11-.08-.44.14-.35a86.94,86.94,0,0,1,10.26,5.67c3.3,1.93,6.56,3.93,9.81,5.94,0-4.68,0-9.35.06-14a111.05,111.05,0,0,1-15.3-7.78c-.16-.1-.05-.41.14-.33a113,113,0,0,1,15.17,7.48c0-2.43-.08-21.14.53-44.84-3.19-1.6-6.47-3-9.65-4.63-.21-.11-.06-.47.16-.39,3.23,1.26,6.34,2.76,9.51,4.15.17-6.45.42-12.91.81-19.35a.17.17,0,0,1,.34,0c.44,12,.41,35.17.26,47.16,3.29-2.63,6.81-5,10.17-7.51.13-.1.25.12.12.22-3.51,2.67-6.79,5.63-10.31,8.29,0,.68,0,1.35,0,2,3.57-1.63,7.2-3.15,10.81-4.7.29-.12.54.28.25.42-3.68,1.77-7.35,3.56-11.08,5.23-.08,5.94-.62,27.38-.84,37.75q10.13-5.11,20.4-10a.22.22,0,0,1,.22.39,214,214,0,0,1-20.64,10.37c-.18,8.62-.36,18.84-.47,27.45a.41.41,0,0,1-.82,0c.12-11,.14-23.58.17-34.57-3.56-.88-17-6.64-20.2-8.22C332.45,312.94,332.68,312.37,333,312.5Z" style="fill:#37474f"></path><path d="M311.91,356.29H241.34l3.44-18.56c14.79-1,26.32-11,26.32-11l-25.73,7.85,9.5-51.19a51.12,51.12,0,0,0,10.7-6.72l-10,3.06,1.55-8.35a52.14,52.14,0,0,0,15.19-8.59l-14.41,4.38,9-48.47a45.4,45.4,0,0,0,5.44-3.87l-5,1.53,9.33-50.31L290,238.14l-11.62-5.55a43.27,43.27,0,0,0,12.45,10.06h0l12.59,67.87L283.9,303a42.93,42.93,0,0,0,20.27,11.59l1.29,6.93L295,319.13a38.66,38.66,0,0,0,11.21,6.23Z" style="fill:#455a64"></path><path d="M300.11,294.44c-4.22,1.61-19.23,7.68-22.61,9.54,0-.71,0-1.43,0-2.14,3.78-2.22,7.56-4.41,11.34-6.61,4.06-2.37,6.76-3.21,10.55-6,.18-.14.08-.52-.18-.41a72.43,72.43,0,0,0-10.27,5.33c-3.85,2.25-7.65,4.58-11.44,6.92,0-5.44,0-10.89-.07-16.33a128.56,128.56,0,0,0,17.82-9.06c.2-.11.07-.47-.16-.38A130.93,130.93,0,0,0,277.42,284c0-2.83,0-5.66-.06-8.49-.16-14.57-.19-29.16-.56-43.73,3.71-1.87,7.53-3.52,11.23-5.4.24-.12.07-.55-.19-.45-3.76,1.47-7.38,3.21-11.07,4.83-.2-7.51-.49-15-.94-22.54a.2.2,0,0,0-.39,0c-.52,14-.48,27.93-.3,41.9-3.84-3.06-7.94-5.77-11.85-8.75-.15-.11-.3.14-.15.26,4.09,3.11,7.91,6.55,12,9.65l0,2.37c-4.16-1.9-8.39-3.68-12.6-5.48-.33-.14-.62.33-.29.49,4.29,2.06,8.56,4.16,12.91,6.1q.15,10.38.3,20.75c.16,12.08.43,24.16.68,36.24q-11.79-6-23.75-11.6c-.31-.14-.57.29-.27.46a247.59,247.59,0,0,0,24,12.07c.22,10,.42,33.09.55,43.13a.48.48,0,0,0,.95,0c-.14-12.8-.16-38.62-.2-51.42,4.15-1,19.18-7.44,22.9-9.27C300.79,295,300.52,294.28,300.11,294.44Z" style="fill:#37474f"></path><path d="M658.53,356.29H588l3.45-18.56c14.78-1,26.31-11,26.31-11L592,334.59l9.5-51.19a51.38,51.38,0,0,0,10.71-6.72l-10,3.06,1.55-8.35a52.44,52.44,0,0,0,15.2-8.59l-14.41,4.38,9-48.47a45.4,45.4,0,0,0,5.44-3.87l-5,1.53,9.33-50.31,13.36,72.08L625,232.59a43,43,0,0,0,12.45,10.06h0L650,310.53,630.52,303a42.91,42.91,0,0,0,20.28,11.59l1.29,6.93-10.51-2.39a38.71,38.71,0,0,0,11.22,6.23Z" style="fill:#455a64"></path><path d="M646.74,294.44c-4.23,1.61-19.24,7.68-22.61,9.54,0-.71,0-1.43,0-2.14,3.77-2.22,7.56-4.41,11.34-6.61,4.06-2.37,6.76-3.21,10.54-6,.19-.14.08-.52-.17-.41a72.54,72.54,0,0,0-10.28,5.33c-3.84,2.25-7.64,4.58-11.43,6.92q0-8.16-.07-16.33a129.69,129.69,0,0,0,17.82-9.06c.19-.11.06-.47-.16-.38A131.05,131.05,0,0,0,624,284c0-2.83,0-5.66-.06-8.49-.15-14.57-.18-29.16-.56-43.73,3.71-1.87,7.53-3.52,11.24-5.4.24-.12.07-.55-.19-.45-3.76,1.47-7.38,3.21-11.07,4.83-.2-7.51-.49-15-.95-22.54a.2.2,0,0,0-.39,0c-.52,14-.47,27.93-.3,41.9-3.84-3.06-7.93-5.77-11.84-8.75-.15-.11-.3.14-.15.26,4.08,3.11,7.91,6.55,12,9.65l0,2.37c-4.17-1.9-8.39-3.68-12.6-5.48-.33-.14-.63.33-.29.49,4.29,2.06,8.56,4.16,12.9,6.1.1,6.92.22,13.84.31,20.75.16,12.08.42,24.16.68,36.24q-11.79-6-23.76-11.6c-.3-.14-.57.29-.27.46a248.89,248.89,0,0,0,24.05,12.07c.21,10,.42,33.09.55,43.13a.47.47,0,0,0,.94,0c-.13-12.8-.16-38.62-.19-51.42,4.15-1,19.18-7.44,22.9-9.27C647.41,295,647.14,294.28,646.74,294.44Z" style="fill:#37474f"></path><path d="M683.26,356.29H631.75l6-26.6a34.06,34.06,0,0,0,16.45-5.13l-16,3L645.64,295a29.87,29.87,0,0,0,6.55-4.18l-6,1.91,1-4.33a31,31,0,0,0,9.08-6l-8.46,3.31,9.75-43L663,267l-5-1.24a36,36,0,0,0,5.34,3l7.9,34.84-5.73-1.43a37.88,37.88,0,0,0,6.16,3.34l5.48,24.12L666,326.81a41.06,41.06,0,0,0,11.76,5.32l1,4.2L661.54,332a40.87,40.87,0,0,0,17.68,6.44l1.36,6-5.72-1.43a37.88,37.88,0,0,0,6.16,3.34Z" style="fill:#37474f"></path><path d="M673.78,321.88c-2.85,1.08-13.4,5.38-15.68,6.63,0-.48,0-1,0-1.44q3.82-2.25,7.66-4.46a90.6,90.6,0,0,0,8.23-4.9c.13-.09.06-.35-.11-.28a69.58,69.58,0,0,0-8.06,4.46q-3.88,2.28-7.72,4.66,0-5.51,0-11a86.49,86.49,0,0,0,12-6.12c.13-.07,0-.32-.11-.25A88.42,88.42,0,0,0,658,315c0-1.91.06-16.61-.41-35.24,2.5-1.26,5.07-2.37,7.58-3.64.16-.08,0-.37-.13-.3-2.54,1-5,2.16-7.47,3.26-.14-5.08-.33-10.15-.64-15.21a.13.13,0,0,0-.26,0c-.35,9.42-.33,27.64-.21,37.07-2.59-2.07-5.35-3.9-8-5.91-.1-.08-.2.1-.1.17,2.76,2.1,5.34,4.43,8.1,6.52,0,.53,0,1.06,0,1.6-2.81-1.29-5.66-2.48-8.5-3.7-.22-.1-.42.22-.19.33,2.89,1.39,5.77,2.8,8.7,4.11.07,4.67.5,21.52.67,29.67q-8-4-16-7.83c-.21-.09-.39.2-.18.31a168.34,168.34,0,0,0,16.22,8.15c.15,6.77.29,14.8.37,21.58a.32.32,0,0,0,.64,0c-.09-8.64-.11-18.54-.13-27.18,2.8-.69,13.37-5.21,15.88-6.45C674.24,322.22,674.05,321.77,673.78,321.88Z" style="fill:#455a64"></path><path d="M268.29,356.29h-51.5l6-26.6a34.1,34.1,0,0,0,16.45-5.13l-16,3L230.67,295a29.7,29.7,0,0,0,6.56-4.18l-6,1.91,1-4.33a31,31,0,0,0,9.08-6l-8.46,3.31,9.74-43L248.05,267l-5-1.24a36,36,0,0,0,5.34,3l7.9,34.84-5.73-1.43a37.88,37.88,0,0,0,6.16,3.34l5.47,24.12-11.18-2.79a40.74,40.74,0,0,0,11.76,5.32l.95,4.2L246.58,332a40.8,40.8,0,0,0,17.68,6.44l1.36,6-5.72-1.43a37.88,37.88,0,0,0,6.16,3.34Z" style="fill:#37474f"></path><path d="M258.82,321.88c-2.85,1.08-13.4,5.38-15.68,6.63,0-.48,0-1,0-1.44q3.83-2.25,7.65-4.46a90.76,90.76,0,0,0,8.24-4.9c.12-.09.06-.35-.12-.28a69.44,69.44,0,0,0-8,4.46c-2.6,1.52-5.16,3.08-7.72,4.66,0-3.67,0-7.34,0-11a86.05,86.05,0,0,0,12-6.12c.13-.07,0-.32-.11-.25A88.42,88.42,0,0,0,243.08,315c0-1.91.06-16.61-.42-35.24,2.51-1.26,5.08-2.37,7.58-3.64.17-.08,0-.37-.12-.3-2.54,1-5,2.16-7.48,3.26-.13-5.08-.33-10.15-.63-15.21a.14.14,0,0,0-.27,0c-.35,9.42-.32,27.64-.2,37.07-2.59-2.07-5.36-3.9-8-5.91-.11-.08-.2.1-.1.17,2.75,2.1,5.33,4.43,8.1,6.52,0,.53,0,1.06,0,1.6-2.81-1.29-5.66-2.48-8.5-3.7-.22-.1-.42.22-.2.33,2.9,1.39,5.78,2.8,8.71,4.11.07,4.67.49,21.52.67,29.67q-8-4-16-7.83c-.2-.09-.38.2-.18.31a169.67,169.67,0,0,0,16.23,8.15c.14,6.77.28,14.8.37,21.58a.32.32,0,0,0,.64,0c-.09-8.64-.11-18.54-.13-27.18,2.8-.69,13.37-5.21,15.88-6.45C259.27,322.22,259.09,321.77,258.82,321.88Z" style="fill:#455a64"></path><path d="M175.22,356.29H104.65l3.45-18.56c14.78-1,26.31-11,26.31-11l-25.73,7.85,9.5-51.19a51,51,0,0,0,10.71-6.72l-10,3.06,1.55-8.35a52.27,52.27,0,0,0,15.2-8.59l-14.41,4.38,9-48.47a45.4,45.4,0,0,0,5.44-3.87l-5,1.53L140,166.06l13.36,72.08-11.61-5.55a43,43,0,0,0,12.45,10.06h0l12.59,67.87L147.21,303a43,43,0,0,0,20.28,11.59l1.29,6.93-10.51-2.39a38.84,38.84,0,0,0,11.22,6.23Z" style="fill:#37474f"></path><path d="M163.43,294.44c-4.22,1.61-19.23,7.68-22.61,9.54,0-.71,0-1.43,0-2.14,3.77-2.22,7.56-4.41,11.34-6.61,4.06-2.37,6.76-3.21,10.54-6,.19-.14.08-.52-.17-.41a72.54,72.54,0,0,0-10.28,5.33c-3.84,2.25-7.64,4.58-11.43,6.92q0-8.16-.07-16.33a129.69,129.69,0,0,0,17.82-9.06c.19-.11.06-.47-.16-.38A131.05,131.05,0,0,0,140.73,284c0-2.83,0-5.66-.06-8.49-.15-14.57-.18-29.16-.55-43.73,3.7-1.87,7.52-3.52,11.23-5.4.24-.12.07-.55-.19-.45-3.76,1.47-7.38,3.21-11.07,4.83-.2-7.51-.49-15-1-22.54a.19.19,0,0,0-.38,0c-.53,14-.48,27.93-.31,41.9-3.84-3.06-7.93-5.77-11.84-8.75-.15-.11-.3.14-.15.26,4.09,3.11,7.91,6.55,12,9.65l0,2.37c-4.17-1.9-8.39-3.68-12.6-5.48-.33-.14-.63.33-.29.49,4.29,2.06,8.56,4.16,12.9,6.1.1,6.92.22,13.84.31,20.75.16,12.08.42,24.16.68,36.24q-11.79-6-23.76-11.6c-.3-.14-.57.29-.27.46a248.89,248.89,0,0,0,24.05,12.07c.21,10,.42,33.09.55,43.13a.48.48,0,0,0,1,0c-.14-12.8-.16-38.62-.2-51.42,4.15-1,19.18-7.44,22.9-9.27C164.1,295,163.83,294.28,163.43,294.44Z" style="fill:#455a64"></path></g><g id="freepik--character-3--inject-181"><path d="M332.42,451.88c-3.65-1.1-.73-11.63,3.2-15,1.25-1.05,5.93-3.6,11.79-6.64,12.92-6.66,31.52-15.61,31.52-15.61l-18-67.51,65.38-1.48S446,409,446,413c0,.24,0,.49,0,.74-.06,18-.53,32.8-2,33.76C440.13,450.09,336.09,453,332.42,451.88Z" style="fill:#ad6359"></path><path d="M332.42,451.88c3.67,1.12,107.71-1.78,111.6-4.41,1.46-1,1.93-15.73,2-33.76,0-.25,0-.5,0-.74a75.67,75.67,0,0,0-2.31-9.49l-67.23,1.89,2.47,9.29s-18.6,8.95-31.52,15.61c-5.87,3-10.54,5.58-11.79,6.64C331.68,440.25,328.77,450.78,332.42,451.88Z" style="fill:#ebebeb"></path><path d="M331.26,452.5c3.74,1.14,109.67-2,113.63-4.64,1.52-1,2-16.46,2-35.16v-.58l-68.37,1.23.06,1.16s-40,19.32-44.06,22.73S327.53,451.37,331.26,452.5Z" style="fill:#FFC727"></path><path d="M332.34,448.35c17.85-1,89.91-3.15,107.62-2.74.14,0,.15.1,0,.11-17.66,1.34-89.74,2.95-107.61,2.93C332,448.65,332,448.37,332.34,448.35Z" style="fill:#263238"></path><path d="M370.89,413.77c7-1.52,15.61-.69,21.13,4.16.21.19-.06.49-.29.42a98.84,98.84,0,0,0-20.79-3.69A.45.45,0,0,1,370.89,413.77Z" style="fill:#263238"></path><path d="M365.91,417c7-1.52,15.61-.69,21.13,4.16.21.18-.06.48-.29.42a99,99,0,0,0-20.79-3.7A.45.45,0,0,1,365.91,417Z" style="fill:#263238"></path><path d="M360.92,420.18c7-1.52,15.62-.69,21.13,4.16.22.19-.05.49-.28.42A99,99,0,0,0,361,421.07.45.45,0,0,1,360.92,420.18Z" style="fill:#263238"></path><path d="M364.75,408.63c5.08,3.72,11.59,5.11,17.46,7.08.61.21,1.07-.37,1.08-.91a.18.18,0,0,0,.15-.25,37.38,37.38,0,0,0-11.29-15.78c-3-2.38-8.2-3.94-10.85-.06C358.8,402.38,361.78,406.45,364.75,408.63Zm-2-5.61c-1.46-7.67,6.93-3.86,9.08-2a39.38,39.38,0,0,1,3.84,3.91,112.79,112.79,0,0,1,6.8,9.07c-2.82-1.14-5.72-2-8.58-3.08C370.52,409.65,363.6,407.26,362.79,403Z" style="fill:#263238"></path><path d="M406.59,403.15c-1.83-4.33-7.23-3.83-10.64-2.09a37.52,37.52,0,0,0-14.2,13.22.19.19,0,0,0,.1.29.87.87,0,0,0,.88,1.1c6.14-.77,12.8-.84,18.52-3.48C404.59,410.65,408.32,407.25,406.59,403.15Zm-14.79,9.44c-3,.46-6,.76-9,1.33a110.21,110.21,0,0,1,8.46-7.54,40.7,40.7,0,0,1,4.54-3.08c2.47-1.38,11.45-3.44,8.5,3.79C402.65,411.07,395.39,412.05,391.8,412.59Z" style="fill:#263238"></path><path d="M518.46,300.43s12.92,42.09-7.19,55.22c-13.42,8.77-74.11-1.13-76.89-8.52-5.24-14-5.4-19.12-5.4-19.12l17.6,74.29-76,3s-16-61.42-14.18-127.14c.67-24.3,33.08-32.56,56.1-21.13,22.33,11.09,62.63,42.46,62.63,42.46Z" style="fill:#263238"></path><path d="M438.93,358.69c-4.37-9.91-4.17-13.86-15.27-44.7-1.49-4.12-2.75-8.32-4.09-12.49-1.39-4.33-3-8.63-4.1-13a.17.17,0,0,0-.33.09c1.29,3.82,2.17,7.77,3.29,11.63s2.23,7.57,3.4,11.33c.5,1.62,1,3.24,1.54,4.87-.21-.34-.43-.67-.63-1-.94-1.51-1.88-3-2.85-4.5-2-3.06-4.41-5.92-6.18-9.13-.11-.19-.42,0-.3.18,2,3.05,3.5,6.47,5.4,9.6.92,1.52,1.88,3,2.86,4.49a29,29,0,0,0,2.85,4c1.53,4.77,4.85,16.26,6.48,21,5.13,14.92,3.45,10.06,7.18,18C438.38,359.43,439.12,359.12,438.93,358.69Z" style="fill:#37474f"></path><path d="M405.18,391.1c11.45-.44,22.86-1.41,34.29-2,.22,0,.24-.35,0-.34-11.41.25-22.82.13-34.22.59s-22.85,1.34-34.28,2c-.29,0-.33.47,0,.47C382.37,391.61,393.78,391.55,405.18,391.1Z" style="fill:#37474f"></path><path d="M433.13,386.49c-1.19-5-2.79-9.95-4.27-14.9s-2.95-9.9-4.47-14.83c-3-9.89-6.19-19.73-9.33-29.58-1.79-5.59-3.7-11.14-5.59-16.7a.13.13,0,0,0-.25.07q8.49,29.82,18.12,59.29c1.82,5.58,3.48,11.24,5.61,16.7A.09.09,0,0,0,433.13,386.49Z" style="fill:#37474f"></path><path d="M511.27,355.65c20.11-13.13,7.2-55.23,7.2-55.23l-36.54-.75-48.44,45c.28.78.57,1.58.89,2.42C437.16,354.52,497.85,364.42,511.27,355.65Z" style="fill:#000102;opacity:0.1"></path><path d="M370.14,403.62c.27,1.12.43,1.71.43,1.71l76-3L433,345.13Z" style="fill:#000102;opacity:0.1"></path><path d="M678.61,453c.79,3.73-9.84,6.24-14.66,4.4-1.53-.59-6-3.46-11.5-7.14-12.07-8.11-28.86-20.1-28.86-20.1l-55.78,4.95L535,378.56s51.3-4.41,54.78-6.33c.22-.11.43-.23.64-.35,15.83-8.64,29-15.34,30.56-14.53C625.17,359.5,677.82,449.28,678.61,453Z" style="fill:#ad6359"></path><path d="M580,374l31,57.33,12.52-1.12s16.8,12,28.87,20.1c5.48,3.67,9.95,6.55,11.49,7.14,4.82,1.85,15.45-.68,14.66-4.41S625.17,359.5,621,357.35c-1.54-.8-14.73,5.89-30.54,14.53-.23.11-.43.24-.64.35C589,372.7,585.21,373.32,580,374Z" style="fill:#ebebeb"></path><path d="M679.71,453.75c-.81-3.82-54.54-95.17-58.8-97.34-1.6-.85-15.37,6.2-31.75,15.2l-.52.29,34,59.32,1-.62s36.21,25.77,41.14,27.67S680.52,457.57,679.71,453.75Z" style="fill:#FFC727"></path><path d="M675.56,454.8c-9.44-15.17-46.07-77.27-54.24-93-.07-.13,0-.18.09-.06,9.69,14.84,45.81,77.23,54.4,92.9C676,455,675.76,455.12,675.56,454.8Z" style="fill:#263238"></path><path d="M626.68,437.68c-4.69-5.4-8.12-13.36-6.53-20.52.06-.28.45-.19.51,0a99,99,0,0,0,6.77,20A.45.45,0,0,1,626.68,437.68Z" style="fill:#263238"></path><path d="M631.89,440.5c-4.7-5.39-8.13-13.35-6.53-20.52.06-.28.45-.19.51,0a98.49,98.49,0,0,0,6.77,20A.45.45,0,0,1,631.89,440.5Z" style="fill:#263238"></path><path d="M637.1,443.32c-4.7-5.39-8.13-13.35-6.53-20.52.06-.28.45-.18.51.05a98.61,98.61,0,0,0,6.77,20A.45.45,0,0,1,637.1,443.32Z" style="fill:#263238"></path><path d="M625.13,445.54c.81-6.25-1.11-12.63-2.2-18.72a.87.87,0,0,0-1.31-.51.19.19,0,0,0-.3,0,37.54,37.54,0,0,0-8.4,17.5c-.63,3.78.5,9.08,5.18,9.53C622.53,453.76,624.66,449.19,625.13,445.54Zm-4,4.41c-6,5-6.72-4.21-6.14-7a40.13,40.13,0,0,1,1.58-5.25c1.28-3.58,3-6.91,4.67-10.33.36,3,1,6,1.43,9C623.25,440,624.48,447.2,621.16,450Z" style="fill:#263238"></path><path d="M600.18,411.5c-2.91,3.69.12,8.18,3.29,10.34a37.42,37.42,0,0,0,18.43,6.07c.15,0,.21-.11.2-.23a.86.86,0,0,0,.55-1.29c-3.64-5-6.91-10.82-12-14.56C607.72,409.65,602.94,408,600.18,411.5Zm15.4,8.42c1.85,2.42,3.57,4.92,5.51,7.27a112.1,112.1,0,0,1-10.69-3.79,40,40,0,0,1-4.88-2.49c-2.4-1.5-8.54-8.38-.78-9.27C609,411.14,613.37,417,615.58,419.92Z" style="fill:#263238"></path><path d="M470.07,291.4s-1.44,17.69-.89,31.19c0,0-71.17,39.88-73.45,76-.81,12.77,1.56,36.6,26.86,46.78C450.85,456.71,604.93,444,604.93,444l-21.28-70.5-68.06,1.94s48.24,6.29,52.56-25.86c4-29.89-15.13-60.51-15.13-60.51Z" style="fill:#263238"></path><path d="M588.89,441c-1.93-8.14-3.81-16.32-5.93-24.4s-4.39-16.18-6.76-24.22c-.67-2.26-1.36-4.53-2.05-6.79-.32-1.08-.65-2.16-1-3.23s-.64-2.2-1.09-3.24c-.05-.11-.18,0-.17.07a56.33,56.33,0,0,0,1.4,6.25c.49,2,1,3.93,1.44,5.89q1.51,6.06,3.07,12.09c2.1,8.07,4.39,16.06,6.73,24.05q2,6.81,4,13.61C588.62,441.31,589,441.24,588.89,441Z" style="fill:#37474f"></path><path d="M539.09,374.77c-5.52-.24-11.05-.27-16.58-.22s-11.06.26-16.58.51-11.05.7-16.54,1.35A121.74,121.74,0,0,0,473,379.24l4.09-.64,4.11-.51c2.74-.31,5.48-.62,8.23-.82,5.5-.47,11-.85,16.52-1.09s11-.55,16.54-.77Z" style="fill:#37474f"></path><path d="M538.07,295.32a201.66,201.66,0,0,1,7,19.14,126.64,126.64,0,0,1,4.49,19.81,56.76,56.76,0,0,1,.49,10.08,25,25,0,0,1-2.18,9.66,13.5,13.5,0,0,1-2.83,3.93,24.92,24.92,0,0,1-4,2.95,44.94,44.94,0,0,1-9.18,4A125.09,125.09,0,0,1,512,369.06c-6.71,1-13.47,1.71-20.22,2.59a148.09,148.09,0,0,0-20.15,3.72,39.93,39.93,0,0,0-9.63,3.86,46,46,0,0,0-8.29,6.23l-1.49,1.4,2.06-.08,55-2.29,27.51-1c9.17-.29,18.34-.56,27.52-.57-9.18-.28-18.36-.16-27.54-.07s-18.35.33-27.53.56l-27.52.8-27.52,1,.57,1.32a44.55,44.55,0,0,1,8-6,38.44,38.44,0,0,1,9.27-3.66A163.93,163.93,0,0,1,492,373.28c6.72-.91,13.48-1.68,20.23-2.69a127,127,0,0,0,20-4.32,43.6,43.6,0,0,0,9.44-4.22,26,26,0,0,0,4.15-3.19,14.63,14.63,0,0,0,3-4.33,26,26,0,0,0,2.16-10.13,57.62,57.62,0,0,0-.64-10.26,119,119,0,0,0-4.91-19.83A180.22,180.22,0,0,0,538.07,295.32Z" style="fill:#37474f"></path><path d="M477.91,290.43c0-.15-.25-.16-.27,0-.21,2.47-.68,16.55-1,21.86-.09,1.89.1,5.25-2.65,5.32-2.17.06-3.32-2.28-3.62-4.12-.35-2.24.39-18.59.52-24,0-.15-.25-.15-.27,0-.85,5.46-2.3,22.82-1.66,25.23.51,1.89,1.53,3.67,3.49,4.26a35.58,35.58,0,0,0,.27,6.41c0,.17.58.21.61.06h0c-.13-1.27.4-6.22.38-6.25a3.9,3.9,0,0,0,3.46-1.69C479.07,314.88,478.14,296.69,477.91,290.43Z" style="fill:#37474f"></path><path d="M486.89,331.89c-2-1.3-4.08-2.48-6.16-3.64s-4.21-2.24-6.34-3.31-4.29-2.07-6.49-3-4.4-1.84-6.68-2.57c1,.59,2.1,1.12,3.15,1.7l3.16,1.65c2.11,1.1,4.24,2.16,6.37,3.22s4.27,2.09,6.44,3.07l3.25,1.48C484.69,331,485.77,331.45,486.89,331.89Z" style="fill:#37474f"></path><path d="M537.84,319.15c-3.84.09-15.76,1.13-21.6-3.52-4.71-3.76-7.11-17-8-20.62,0-.18-.3-.11-.3.06a41.75,41.75,0,0,0,1.88,12.15c1,3.34,2.38,7.06,5.16,9.35s6.84,3.16,10.52,3.51a47.92,47.92,0,0,0,12.37-.52A.21.21,0,0,0,537.84,319.15Z" style="fill:#37474f"></path><path d="M490.88,202.19C477.71,232.65,455.55,268,448,273c-9.61,6.32-62.48,8.18-65.23,8-4.52-.28-8.05-43.32-3.84-43.41,12.66-.27,46.87.69,49.67-1.29s23.37-19.94,44.8-40.44C488.15,181.68,499.05,183.3,490.88,202.19Z" style="fill:#ad6359"></path><path d="M385.72,281.06c-4.58,1-26,3.74-32.07,3.18S330,280.76,330,276s5.15-4.29,5.15-4.29-7.2-2.4-6.8-7.16,8.44-3.81,8.44-3.81-7.21-3-6.48-7.73,8.67-2.41,8.67-2.41-6.72-2.44-4.48-6.08c2.7-4.37,14.57,1.52,21.37,1.63,1.55,0,31.35-1.68,31.35-1.68Z" style="fill:#ad6359"></path><path d="M338.29,250.44c8.75,4.32,13.32,4.69,22.86,3.68.19,0,.26.26.06.3-9.25,1.83-15,2.19-23.15-3.56C337.67,250.58,337.88,250.24,338.29,250.44Z" style="fill:#263238"></path><path d="M336.1,260.41c9.47,3.69,14.43,4.14,24.5,3.82.14,0,.16.23,0,.25-9.86,1.14-15.65,1.36-24.63-3.56C335.58,260.7,335.67,260.24,336.1,260.41Z" style="fill:#263238"></path><path d="M335.66,271.71c9.43,2.9,14.84,3.63,24.57,2.07a.18.18,0,0,1,.08.35c-9.77,2.56-16.53,1.71-24.71-2.12C335,271.74,335.06,271.53,335.66,271.71Z" style="fill:#263238"></path><path d="M393,239.31s-10.64-6-15.89-7.61-27-.4-27,4.32c0,6.09,12.71,7.87,19,7.93,0,0,0,14.1,8.82,17.35S393,239.31,393,239.31Z" style="fill:#ad6359"></path><path d="M350.59,237.69c4,5.57,12.33,5.11,18.48,5.62a.56.56,0,0,1,.5.78c.38,5.91,2.64,14.14,8,17.37a.15.15,0,0,1-.13.26c-6.21-2.69-9.09-10.59-9.09-17.09-6.31-.43-14.69-.34-17.81-6.9C350.52,237.69,350.56,237.66,350.59,237.69Z" style="fill:#263238"></path><path d="M445.7,219.48,470.87,244s19.38-29.89,22.56-46.21-4.13-14.81-15.84-6.22C468.28,198.35,445.7,219.48,445.7,219.48Z" style="fill:#FFC727"></path><path d="M473.54,234.68c-2.81-3.35-6.07-6.4-9.18-9.49s-6.58-6.11-9.82-9.21c-.1-.09-.26.06-.17.16,3.06,3.17,6,6.47,9.15,9.54a125.37,125.37,0,0,0,9.94,9.08C473.51,234.8,473.59,234.74,473.54,234.68Z" style="fill:#263238"></path><path d="M493.43,197.74C490.25,214.06,470.87,244,470.87,244L464.75,238l2.43-37.94c4-3.46,7.75-6.58,10.41-8.54C489.3,182.93,496.62,181.41,493.43,197.74Z" style="opacity:0.1"></path><path d="M564,304c-.21.3-102.77-4.32-103.84-5.3-1.49-1.38,5.6-85.08,20.33-109.5,3.68-6.11,18.17-8,25.48-3.58C542.26,207.55,564.8,302.91,564,304Z" style="fill:#FFC727"></path><path d="M497.31,227.22c-3.25,6.69-11,10.66-11,10.66s-7.73-4-11-10.66c-2.71-5.58-1-11.62,3.28-12.94,6.12-1.89,7.69,5.28,7.69,5.28s1.57-7.17,7.7-5.28C498.3,215.6,500,221.64,497.31,227.22Z" style="fill:#fff"></path><path d="M486.34,239.86a4.75,4.75,0,0,1,2.44-5.07,35.56,35.56,0,0,1,4.88-1.59,19.74,19.74,0,0,0,3.6-1.81s-.88,10.85-10.53,9.35c0,0,.26-1.4,2.4-3.41a20.16,20.16,0,0,1,3.5-2.31A10.28,10.28,0,0,0,486.34,239.86Z" style="fill:#455a64"></path><path d="M486.33,239.86a4.77,4.77,0,0,0-2.44-5.07A35.56,35.56,0,0,0,479,233.2a19.74,19.74,0,0,1-3.6-1.81s.88,10.85,10.53,9.35c0,0-.26-1.4-2.4-3.41A20.16,20.16,0,0,0,480,235,10.28,10.28,0,0,1,486.33,239.86Z" style="fill:#455a64"></path><path d="M516.56,194c30.09,24.27,65.76,75.37,60.76,87.75-5.57,13.79-47.5-20.27-47.61-22.52-.08-1.71-12.46-32.58-25.37-56.85S509.12,188,516.56,194Z" style="fill:#ad6359"></path><path d="M519.54,240.88l30.65-17.11s-23.1-27.13-37.82-34.85-15.37-.27-10.5,13.39C505.75,213.19,519.54,240.88,519.54,240.88Z" style="fill:#FFC727"></path><path d="M542.08,218.55c-4,1.74-7.88,4-11.73,6.08s-7.73,4.56-11.64,6.78c-.11.06,0,.26.11.2,3.92-2,7.91-3.87,11.76-6a126,126,0,0,0,11.55-6.93S542.14,218.53,542.08,218.55Z" style="fill:#263238"></path><path d="M503.75,207.19c4.63,9.73,11.53,23.95,15.89,33.64l-.15,0,2.43-1.24L519.59,241l-.09.05-.06-.1c-1.48-2.73-2.87-5.5-4.27-8.27-4.09-8.35-8.17-16.74-11.42-25.47Z" style="fill:#263238"></path><path d="M504.31,211.84a51.19,51.19,0,0,0,3.34,4.25,6.56,6.56,0,0,1-3.34-4.25Z" style="fill:#263238"></path><path d="M494.31,162.18s17.86,11.31,16.24,14.59S487.4,181.41,482,179s-17.35-14.77-17.35-14.77Z" style="fill:#FFC727"></path><path d="M494.31,162.18s17.86,11.31,16.24,14.59S487.4,181.41,482,179s-17.35-14.77-17.35-14.77Z" style="opacity:0.1"></path><path d="M488.27,204.34c4.3-1.18,10.53-12,11.8-19.73.08-.53-2.27-5-4.86-10.57-1.57-3.39-3.23-7.2-4.49-10.78l-20.54,13.39s4.86,6.73,7,13a8.19,8.19,0,0,1,.37,1.52,1.66,1.66,0,0,0,.05.26C478.15,194.37,481.55,206.19,488.27,204.34Z" style="fill:#ad6359"></path><path d="M477.57,191.16a1.66,1.66,0,0,0,.05.26,14.91,14.91,0,0,0,2.35-.7c12.67-4.79,10.31-21.46,9.26-26.49l-19.06,12.42s4.86,6.73,7,13A9.81,9.81,0,0,1,477.57,191.16Z" style="fill:#263238"></path><path d="M493.79,141.28c2.87,8.49-.9,33.35-6.83,39.05-8.58,8.26-23,9.46-30.12-1-6.9-10.08-1.4-42.4,5.25-47.62C471.89,124.08,489.55,128.75,493.79,141.28Z" style="fill:#ad6359"></path><path d="M456.83,179.39c7.11,10.4,21.54,9.2,30.13.94,2.4-2.31,4.45-7.78,5.85-14l-5.59-9.66s-2.63,7.54-6,9.54c-4.58,2.74-13.28,3.41-16.11-1.55l-2.92-.24s-6.12,3.6-8.56-1.17C453.57,169.9,454.47,175.94,456.83,179.39Z" style="fill:#263238;opacity:0.30000000000000004"></path><path d="M493,162.71c-3.68.73-5.47-2.5-6.22-4.82s1-16-.45-19.49-5.12-5.66-8.15-5-7.17,4.27-9.35,3.9-2.35-5.15-3.87-5.26c-3.36-.25-7.53,7.77-8.41,11.41,0,0,1.08-15.78,17.28-16,15.8-.23,20.05,10.92,21.06,15.76C496.84,152.45,493,162.71,493,162.71Z" style="fill:#263238"></path><path d="M470.82,156.69c0-.07.12.1.11.16-.3,1.67-.36,3.63,1.07,4.41.05,0,0,.11,0,.09C470.16,160.82,470.27,158.22,470.82,156.69Z" style="fill:#263238"></path><path d="M472.58,155.16c2.72.19,2.14,5.62-.39,5.45S470.29,155,472.58,155.16Z" style="fill:#263238"></path><path d="M461.26,155.86c0-.06-.14.07-.14.14-.13,1.69-.56,3.6-2.14,4-.05,0-.06.09,0,.09C460.87,160,461.41,157.48,461.26,155.86Z" style="fill:#263238"></path><path d="M460,153.94c-2.69-.49-3.48,4.92-1,5.38S462.2,154.36,460,153.94Z" style="fill:#263238"></path><path d="M475,152.9a22.19,22.19,0,0,1-2-1,3.64,3.64,0,0,1-1.88-1.38,1.15,1.15,0,0,1,.34-1.37,2.84,2.84,0,0,1,2.9,0,4.24,4.24,0,0,1,2.22,2.07A1.23,1.23,0,0,1,475,152.9Z" style="fill:#263238"></path><path d="M458.14,151a20.47,20.47,0,0,0,2.22-.33,3.67,3.67,0,0,0,2.2-.77,1.16,1.16,0,0,0,.08-1.41,2.86,2.86,0,0,0-2.78-.84,4.21,4.21,0,0,0-2.73,1.33A1.24,1.24,0,0,0,458.14,151Z" style="fill:#263238"></path><path d="M472.46,172.27c-.43.37-.87.89-1.48.91a4.42,4.42,0,0,1-1.8-.54.06.06,0,0,0-.08.09,2.3,2.3,0,0,0,2.1,1,1.79,1.79,0,0,0,1.42-1.41C472.65,172.26,472.52,172.22,472.46,172.27Z" style="fill:#263238"></path><path d="M471,167.1a5.75,5.75,0,0,1-4,2.33,6.91,6.91,0,0,1-2.08,0,2.28,2.28,0,0,1-.39-.06l-.37-.08a.42.42,0,0,1-.32-.4h0a1,1,0,0,1,0-.18h0v-.15c0-1.3.29-3.27.29-3.27-.49.21-3,1.15-2.9.47.67-5.61,1.42-11.85,3.27-17.29.06-.18.34-.12.31.06-.43,5.42-1.82,10.73-2.34,16.16a10.18,10.18,0,0,1,2.77-.66c.18.06-.54,3.8-.51,4.39a.11.11,0,0,0,0,.06c2.17.41,3.86-.15,6.07-1.49C471,166.85,471.09,167,471,167.1Z" style="fill:#263238"></path><path d="M466.34,169.1a6.08,6.08,0,0,0,2.51,1.81,2.75,2.75,0,0,0,1.68.05c1.2-.36,1.19-1.47.94-2.41a6.8,6.8,0,0,0-.59-1.44A8,8,0,0,1,466.34,169.1Z" style="fill:#263238"></path><path d="M468.85,170.91a2.75,2.75,0,0,0,1.68.05c1.2-.36,1.19-1.47.94-2.41A2.85,2.85,0,0,0,468.85,170.91Z" style="fill:#ff9abb"></path><path d="M455.56,142.4s14.33-1.55,25.11,3.18c4.24,1.86,15.23,11.73,15.23,11.73a42.18,42.18,0,0,0-.63-18.77c-4.14-14.17-22.08-15.56-30.2-11.13C457.78,131.39,455.56,142.4,455.56,142.4Zm9.64-2.93a6.27,6.27,0,0,1,7.45-4.64c5.3.93,6.2,4.51,6.19,6.94A42.47,42.47,0,0,0,465.2,139.47Z" style="fill:#FFC727"></path><path d="M487.69,161.09s5.51-8.06,9.16-6.1-.44,13.6-4.68,15.23a4.34,4.34,0,0,1-5.84-2.27Z" style="fill:#ad6359"></path><path d="M495.6,158.3c.07,0,.08.09,0,.11-3,1.24-4.52,4-5.59,6.92.87-1.12,2.08-1.74,3.57-.69.08.05,0,.17-.08.16a2.67,2.67,0,0,0-2.93,1,13.41,13.41,0,0,0-1.38,2.38c-.13.27-.62.13-.52-.17a.25.25,0,0,0,0-.07C488.6,164.09,491.51,158.72,495.6,158.3Z" style="fill:#263238"></path><path d="M576.43,283.2c-6,8.8-33.54,14.52-74.95,23.09-5.73,1.19-24.08-38.34-18-39.92,7.63-2,47.66-10.6,49.92-10.76C552.36,254.2,580.52,277.22,576.43,283.2Z" style="fill:#ad6359"></path><path d="M446.25,287.36c2.39,4.46,6.86,1.18,6.86,1.18a9.36,9.36,0,0,0-.91,6.29c1,3.73,7.22,3.87,7.22,3.87a11.47,11.47,0,0,0,.1,6.78C460.8,309,467.1,310,467.1,310a10.53,10.53,0,0,0,3.84,5.91c8.8,6.24,33.42-7,39.64-12.29l-9.74-40.16s-27.78-2.12-38,2.89C457.21,269.14,442.58,280.54,446.25,287.36Z" style="fill:#ad6359"></path><path d="M453.13,288.36c4.9-4.85,10.94-8.52,16.81-12a.12.12,0,0,1,.12.21c-5.63,3.79-11,8.43-16.73,12.05A.17.17,0,0,1,453.13,288.36Z" style="fill:#263238"></path><path d="M459.41,298.46a17.61,17.61,0,0,1,4-2.47c1.48-.78,3-1.53,4.46-2.26,3-1.45,6-2.84,9.1-4.14.14,0,.26.14.12.21-3,1.45-5.95,2.95-8.87,4.54q-2.19,1.19-4.37,2.4a21.18,21.18,0,0,1-4.2,2.11A.23.23,0,0,1,459.41,298.46Z" style="fill:#263238"></path><path d="M467.22,309.94a12.47,12.47,0,0,1,3.72-2Q473,307,475.07,306c2.74-1.3,5.49-2.6,8.19-4a.12.12,0,0,1,.12.21c-2.74,1.43-5.45,2.89-8.2,4.3-1.35.69-2.7,1.38-4.06,2.05a11.6,11.6,0,0,1-3.84,1.54C467.21,310.08,467.17,310,467.22,309.94Z" style="fill:#263238"></path><path d="M524.67,257.29a68.44,68.44,0,0,1,8.51-2,24.36,24.36,0,0,1,8.81.66,45.87,45.87,0,0,1,16,7.1c-1.11-.57-2.76-1.39-3.92-1.91-6.49-2.81-13.61-5.42-20.74-5.1-2.89.35-5.75.83-8.62,1.29Z" style="fill:#263238"></path></g><g id="freepik--garbage-bag--inject-181"><path d="M307.88,292.36c-2.28,1.89-6.84,6-6.6,10.48s6.91,8.14,6.24,10.06-32.47,57.19-30.84,73.91,15.86,28.84,16.1,33.34,4,16.76,12.48,22.68,50.38,16,55.19,16.07,49.3-11,57-12.79S445.1,427,446.75,424.48s1.68-22.75,2.34-23.7,7.85-8.21,9.89-14.27-9.34-34.5-14.41-38.45-15.8-22.58-16.08-25-.18-8.11-.18-8.11,5.34-2.55,6.87-7.34S425.35,291.8,417,287.8s-16.55-3.42-29.19-9.66S351.36,256.79,344.17,255s-34.38-2.19-38.31,2.14-10.49,21.3-9.81,24S307.88,292.36,307.88,292.36Z" style="fill:#FFC727"></path><path d="M425.84,303.58c-6.77,4.93-21.44,2.52-29,1-13.79-2.73-28.5-2.48-41.83-7-11.15-3.77-22.87-9.22-32.14-16.34-5.18-4-7.25-7.4-6.79-11.65.6-5.58,3.92-8.65,10.85-9.46,5.89-.69,12.06-1.11,17.77.74,6.17,2,29.77,14.51,36.16,17.94,7.74,4.16,15,5.12,23.26,7.43,7.59,2.12,19.39,8,22.47,15.58A1.55,1.55,0,0,1,425.84,303.58Z" style="fill:#FFC727"></path><path d="M425.84,303.58c-6.77,4.93-21.44,2.52-29,1-13.79-2.73-28.5-2.48-41.83-7-11.15-3.77-22.87-9.22-32.14-16.34-5.18-4-7.25-7.4-6.79-11.65.6-5.58,3.92-8.65,10.85-9.46,5.89-.69,12.06-1.11,17.77.74,6.17,2,29.77,14.51,36.16,17.94,7.74,4.16,15,5.12,23.26,7.43,7.59,2.12,19.39,8,22.47,15.58A1.55,1.55,0,0,1,425.84,303.58Z" style="opacity:0.1"></path><path d="M410.62,306.46a1.1,1.1,0,0,1-.57.43,11.45,11.45,0,0,1-3.1-.55l-1-.27h0c-.9-.25-1.9-.51-2.87-.8-.48-.14-1-.26-1.44-.41l-.76-.21-2-.55-1.4-.35-.4-.09a1.91,1.91,0,0,0-.71-.07,4.12,4.12,0,0,0-.5.17l-1.12.45c-4.58-.82-9.24-1.33-13.93-1.85-.33-.05-.67-.09-1-.12a15.5,15.5,0,0,1-.41-8.09,11.46,11.46,0,0,1,1.76-4.53,12.81,12.81,0,0,1,2.8-1.82c1.48-.84,3.36-1.8,5.24-2.7,1.26-.6,2.5-1.19,3.63-1.7a27.84,27.84,0,0,1,4.12-1.55c2.61-.55,16.34,3.27,17,4.35A10.16,10.16,0,0,1,415.3,291C415.67,297.15,412.3,304.63,410.62,306.46Z" style="fill:#455a64"></path><path d="M413.49,287.37c-.95-.2-3.2,3.9-4.29,8.52-1.14,4.82-1.06,10.17.84,10,1.12-.08,3.22-5,4-9.69C414.82,291.79,414.34,287.55,413.49,287.37Z" style="fill:#fff"></path><path d="M395.84,303.76c0-.11-.09-.21-.13-.31-1.5-4.35-1.94-8.85-5.06-12.52-1.46-1.71-3.94-2.62-6.72-3.13,1.47-.83,3.35-1.79,5.24-2.7a17.66,17.66,0,0,1,2.27,2c3.33,3.5,4.56,8,7.36,11.9a26.69,26.69,0,0,0,8.15,7.29c-3.93-1-10-2.92-10.61-2.76C396.27,303.59,396.09,303.67,395.84,303.76Z" style="fill:#fff"></path><path d="M381.11,301.94l-.32.42c-.33-.05-.67-.09-1-.12-8.44-.94-16.87-1.95-24.82-4.63-.67-.23-1.37-.46-2-.71-1.76-.62-3.53-1.3-5.3-2-1.92-.78-3.82-1.6-5.72-2.47-.64-.46-1.29-.92-2-1.34-3.08-1.94-6.29-3.41-9.06-5.81a1.18,1.18,0,0,1-.34-1.29c-1.92-.94-3.78-1.92-5.66-3s-4.28-2.32-6.32-3.72a17.71,17.71,0,0,1-3-2.54c-2.2-2.45-1.36-4.26.5-5.4a11.17,11.17,0,0,1,5.09-1.36c1.79-.05,4.65,1.08,6-.32.53-.57.71-2.24,1.07-3a8.53,8.53,0,0,1,4.63-4.44c4.29-1.58,8.16.36,11.78,2.59l.94.59c1.08.69,2.16,1.4,3.21,2a11.66,11.66,0,0,0,2.82,1.14h0a29.64,29.64,0,0,0,4,.78,1.17,1.17,0,0,1,.26,0c1.32.15,2.63.3,3.92.51,3,.48,5.89,1.33,7.81,3.73l.32.42c1.24,1.83,1.35,4,1.24,6.16-.14,2.91-.62,5.59,1,8.19,1.26,2,3.39,3.25,5.29,4.58a29.89,29.89,0,0,1,3.88,3.18C381.57,296.37,383.08,299.1,381.11,301.94Z" style="fill:#ebebeb"></path><path d="M366.09,287.34c-2.19,7.23-9.18,9.29-13.17,9.56-1.76-.62-3.53-1.3-5.3-2a.5.5,0,0,0-.08-.07c-1.33-1-2.94-2.4-4.5-3.78a54.51,54.51,0,0,1-6-5.91c-1.5-2.18-3.26-16.32-2.53-17.37,2.05-2.89,6.14-4.34,10.13-4.95a30.46,30.46,0,0,1,3.94-.35h0c3.43-.11,6.16.35,6.5.9a8.74,8.74,0,0,1,.58,2.43c0,.22.07.43.11.66s.09.6.12.91c.57,4,1.09,9.49,1.42,9.93.06.05.2.2.38.39C359.41,279.51,366.42,286.24,366.09,287.34Z" style="fill:#455a64"></path><path d="M335.74,267.74c.18,1,4.83,1.45,9.51.67,4.89-.8,9.8-2.94,8.94-4.64-.51-1-5.85-1-10.49,0C339.3,264.81,335.58,266.89,335.74,267.74Z" style="fill:#fff"></path><path d="M357.67,277.71l-.24.23c-3.44,3.06-7.41,5.21-9.59,9.5-1,2-.9,4.65-.3,7.41-1.33-1-2.94-2.41-4.51-3.8a19.67,19.67,0,0,1,1-2.88c1.95-4.43,5.66-7.31,8.15-11.38a26.82,26.82,0,0,0,3.57-10.33c.62,4,1.17,10.37,1.55,10.85C357.35,277.37,357.49,277.51,357.67,277.71Z" style="fill:#fff"></path><g style="opacity:0.2"><path d="M321.33,429.68c-4.93-1.08-10.85-.9-15.46-3.06s-8.5-6.59-13.15-9.14c-.46-.25-1,.25-.66.71,3.23,4,7.92,9.17,12.73,11.26s11.49,1.25,16.56,1C321.84,430.45,321.72,429.77,321.33,429.68Z"></path><path d="M448.33,401.07c-6.66,3.67-11.58,10-18.72,13s-17.59,2.1-25.2,1.46c-.21,0-.2.29,0,.32,8.37,1.08,18.19,4.36,26.4,1.08,6.75-2.7,13.89-9.55,18.12-15.27C449.21,401.3,448.69,400.88,448.33,401.07Z"></path><path d="M407.67,435.92c-10.21,2.51-20.05,6.29-30,9.58s-20.9.95-31.13-.47c-.52-.07-.76.66-.23.82,9.36,2.78,20,6.51,29.76,3.69a206.37,206.37,0,0,0,32-12.71C408.58,436.58,408.21,435.79,407.67,435.92Z"></path><path d="M358.61,396.48c-5-3.45-10.14-6.89-15.74-9.33s-11.2-4.41-16.78-6.66c-3-1.2-7.09-2.42-9.4-4.83s-3.36-6.6-4.42-9.85a116.62,116.62,0,0,1-4.69-19.24c-.06-.41-.79-.32-.74.1a157,157,0,0,0,3.68,20.52c1.44,5.43,2.45,10.47,7.69,13.31,12.67,6.88,27.66,9.21,39.88,16.88C358.66,397.74,359.16,396.86,358.61,396.48Z"></path><path d="M383.6,317c-26.24-2.08-49.84-14.41-73.71-24.49a.1.1,0,0,0-.1.18C332.16,306.4,357,316.5,383.6,317.13A.09.09,0,1,0,383.6,317Z"></path><path d="M426.47,315.67a72.13,72.13,0,0,1-29.13,2.21c-.18,0-.22.3,0,.33,9.57,1.4,20.8,4,29.38-2C426.92,316,426.78,315.58,426.47,315.67Z"></path><path d="M362.3,331.7C353,329,343.22,327.54,334,324.56a112.47,112.47,0,0,1-25.41-12.47c-.2-.14-.38.18-.19.32,7.35,5.07,14.81,10.48,23.31,13.46,9.57,3.36,20.45,5,30.46,6.5A.35.35,0,0,0,362.3,331.7Z"></path></g><g id="freepik--pOLY8F.tif--inject-181"><path d="M379.35,382.53l16.9-2.33,2.16,15.63s-8.62,1.16-12.75,1.79a8.4,8.4,0,0,1-3.24-.12,6.38,6.38,0,0,1-3.73-2.33c-.52-.68-11.93-16.61-12.17-17.48a4.73,4.73,0,0,1,.16-3.19l3-7.3s-3.67-1.63-5.39-2.36c0,0,15.37-2,15.37-2s10.17,12.42,10.14,12.31l-6.19-2.65Z" style="fill:#fff"></path><path d="M419.71,376.93l-11.19-13.8,11.66-9.22s5.37,6.85,8,10.08a8.37,8.37,0,0,1,1.54,2.86,6.43,6.43,0,0,1-.11,4.39c-.32.8-8.28,18.71-8.9,19.35a4.84,4.84,0,0,1-2.84,1.49l-7.81,1.1s.45,4,.69,5.84l-9.48-12.25s5.55-15.06,5.47-15l.87,6.83Z" style="fill:#fff"></path><path d="M394.88,346.22l-6.72,15.7-13.94-5.09s3-8.16,4.39-12.1a8.32,8.32,0,0,1,1.63-2.81,6.33,6.33,0,0,1,3.79-2.2c.85-.15,20.28-2.76,21.15-2.56a4.72,4.72,0,0,1,2.75,1.63l5,6.08s3.16-2.48,4.61-3.66c0,0-5.47,14.5-5.47,14.5s-15.74,3.17-15.62,3.2l5.24-4.23S395,346.29,394.88,346.22Z" style="fill:#fff"></path></g></g><g id="freepik--Trash--inject-181"><polygon points="258.96 438.82 296.8 443.48 295.9 464.37 257.8 465.75 258.96 438.82" style="fill:#FFC727"></polygon><rect x="242.35" y="449.58" width="30.73" height="5.54" transform="translate(-205.33 690.3) rotate(-87.53)" style="fill:#455a64"></rect><polygon points="255.52 438.98 254.38 465.48 248.22 463.66 249.23 440.26 255.52 438.98" style="fill:#37474f"></polygon><g style="opacity:0.8"><path d="M415.56,440.64l9.35,25.75,30-11a5.63,5.63,0,0,1-.18-1.76.49.49,0,0,1,.84-.3,6.82,6.82,0,0,1,1.08,1.44l1.61-.6a5.58,5.58,0,0,1-.18-1.76.51.51,0,0,1,.86-.3,8.15,8.15,0,0,1,1.06,1.44l1.61-.59a5.63,5.63,0,0,1-.18-1.76.51.51,0,0,1,.86-.31,8.26,8.26,0,0,1,1.06,1.45l1.64-.6a6.33,6.33,0,0,1-.21-1.76.51.51,0,0,1,.86-.3,9.14,9.14,0,0,1,1.08,1.43l6.8-2.47c2.39-.86,7.95-13.36,7.95-13.36l1.85-.68-2.6-7.17-1.86.67s-12.1-6.15-14.68-5.21l-6.8,2.47a10.55,10.55,0,0,1,.09,1.8.53.53,0,0,1-.09.23.5.5,0,0,1-.61.17.31.31,0,0,1-.16-.1,6,6,0,0,1-1-1.47l-1.64.59a7.57,7.57,0,0,1,.1,1.73.13.13,0,0,1,0,.06.51.51,0,0,1-.86.31l-.09-.11a5.45,5.45,0,0,1-.9-1.36l-1.61.59a7.43,7.43,0,0,1,.11,1.44c0,.13,0,.24,0,.35a.51.51,0,0,1-.86.3,3,3,0,0,1-.28-.32,5.35,5.35,0,0,1-.71-1.15l-1.61.59a6.35,6.35,0,0,1,.11,1.19,5.53,5.53,0,0,1,0,.61.49.49,0,0,1-.83.3,5,5,0,0,1-.44-.53,5.28,5.28,0,0,1-.55-.94L430,435.31h0Z" style="fill:#fff"></path><path d="M415.56,440.64c7.46-2.8,22.54-8.36,30-11.07l.08,0a4.78,4.78,0,0,0,.63,1.06c.19.2.44.72.8.55a.39.39,0,0,0,.25-.38l0-.58a7.34,7.34,0,0,0-.13-1.23l.08,0,1.61-.6.08,0a5.4,5.4,0,0,0,1,1.54.39.39,0,0,0,.27.1.41.41,0,0,0,.4-.36,8.9,8.9,0,0,0-.12-1.85l.07,0,1.62-.59.09,0a5.36,5.36,0,0,0,1,1.53.4.4,0,0,0,.67-.3,7.76,7.76,0,0,0-.12-1.8l.08,0,1.64-.59.09,0a6.09,6.09,0,0,0,.81,1.31c.18.26.37.43.65.28a.39.39,0,0,0,.2-.3,10.49,10.49,0,0,0-.09-1.76l0-.1.09,0,5.4-2,1.35-.49c1.44-.37,2.91.26,4.28.64A75.38,75.38,0,0,1,478.86,428l1.85-.67.13-.05.05.13,2.61,7.17.05.14-.14.05-1.85.68a78.71,78.71,0,0,1-5.16,10.12c-.81,1.18-1.5,2.61-2.86,3.27l-1.34.48-5.39,2-.11,0a7.57,7.57,0,0,0-.73-1.05c-.18-.18-.43-.68-.76-.55a.38.38,0,0,0-.25.31,6.3,6.3,0,0,0,.24,1.83l-.12,0-1.64.59-.11,0a7.37,7.37,0,0,0-.7-1.05c-.19-.18-.44-.69-.77-.55a.35.35,0,0,0-.25.32,5.1,5.1,0,0,0,.2,1.82l-.11,0-1.62.59-.1,0a6,6,0,0,0-.7-1.05c-.19-.19-.44-.69-.78-.55a.37.37,0,0,0-.25.33,5.25,5.25,0,0,0,.2,1.81l-.1,0-1.62.59-.1,0-.05-.1a6.53,6.53,0,0,0-1-1.38.38.38,0,0,0-.41-.12.34.34,0,0,0-.25.33,5.25,5.25,0,0,0,.2,1.81l-.1,0-30.05,11c-.2.17-9.27-25.78-9.38-25.83Zm0,0c-.06-.09,9.64,26.11,9.32,25.68-.08.11,30.48-11.37,30-10.89a5.63,5.63,0,0,1-.19-1.78.61.61,0,0,1,1.07-.36,6.56,6.56,0,0,1,1.08,1.43l-.15-.06,1.61-.59-.08.15a5.41,5.41,0,0,1-.18-1.79.62.62,0,0,1,.42-.55.62.62,0,0,1,.67.18,7.86,7.86,0,0,1,1.06,1.44l-.15-.06,1.61-.59-.08.15a5.38,5.38,0,0,1-.19-1.79.64.64,0,0,1,1.11-.37l.38.45a6.68,6.68,0,0,1,.68,1l-.17-.06,1.64-.6-.08.17a6.37,6.37,0,0,1-.22-1.79.65.65,0,0,1,1.13-.38,10.05,10.05,0,0,1,1.07,1.43l-.17-.06,6.73-2.46c1.23-.62,1.94-2,2.7-3.14a98.37,98.37,0,0,0,5.23-10.16l0-.06.06,0,1.85-.68-.09.19-2.6-7.17.18.08-1.85.67-.06,0c-1.72-.87-3.47-1.69-5.23-2.48a37.82,37.82,0,0,0-8.09-2.8,3,3,0,0,0-1.36,0l-1.35.49-5.4,2,.07-.12a9.36,9.36,0,0,1,.09,1.83.64.64,0,0,1-.3.46c-.41.21-.72,0-.95-.33a6.55,6.55,0,0,1-.78-1.27l.13.06-1.63.59.06-.12a8,8,0,0,1,.11,1.74.58.58,0,0,1-.36.57.6.6,0,0,1-.67-.12,5.65,5.65,0,0,1-1-1.5l.13.05-1.62.59.07-.11a8.56,8.56,0,0,1,.1,1.82.59.59,0,0,1-.58.53.52.52,0,0,1-.4-.14,5.12,5.12,0,0,1-1-1.53l.11,0-1.61.59.06-.1a6.64,6.64,0,0,1,.11,1.18c0,.37.07,1-.4,1.12a.54.54,0,0,1-.63-.15,5.72,5.72,0,0,1-1-1.48l.11.05c-7.51,2.69-22.58,8.16-30.08,10.91Z" style="fill:#263238"></path></g><path d="M461.7,426.35l-28.15,10.23L418.67,442l7.7,21.21,42.72-15.58c-1.28-1.57-6.32-17.91-7.25-21.35A.7.7,0,0,0,461.7,426.35Z" style="fill:#ebebeb;opacity:0.8"></path><rect x="479.26" y="427.36" width="10.96" height="5.63" rx="0.51" transform="translate(245.68 1032.57) rotate(-109.94)" style="fill:#FFC727"></rect><path d="M452.5,456.3l-9.31-25.77,2.42-.88a5.28,5.28,0,0,0,.55.94,5,5,0,0,0,.44.53.49.49,0,0,0,.83-.3c0-.18,0-.38,0-.61a7.32,7.32,0,0,0-.11-1.19l1.61-.59a5.35,5.35,0,0,0,.71,1.15,3,3,0,0,0,.28.32.51.51,0,0,0,.86-.3v-.35a8.31,8.31,0,0,0-.11-1.44l1.61-.59a5.19,5.19,0,0,0,.9,1.36l.09.11a.51.51,0,0,0,.86-.31s0,0,0-.06a8.24,8.24,0,0,0-.11-1.73l1.64-.59a6.23,6.23,0,0,0,1,1.47.31.31,0,0,0,.16.1.51.51,0,0,0,.61-.16.41.41,0,0,0,.08-.24,9.57,9.57,0,0,0-.08-1.8l2.57-.94,9.31,25.77-2.54.92a10.54,10.54,0,0,0-1.08-1.44.51.51,0,0,0-.86.31,6.37,6.37,0,0,0,.21,1.76l-1.64.6a8.26,8.26,0,0,0-1.06-1.45.51.51,0,0,0-.86.31,5.63,5.63,0,0,0,.18,1.76l-1.61.59a7.79,7.79,0,0,0-1.06-1.44.5.5,0,0,0-.85.3,5,5,0,0,0,.18,1.76l-1.62.6a6.82,6.82,0,0,0-1.08-1.44.49.49,0,0,0-.84.3,5.63,5.63,0,0,0,.18,1.76Z" style="fill:#FFC727"></path><path d="M452.5,456.3l-9.31-25.77,2.42-.88a5.28,5.28,0,0,0,.55.94,5,5,0,0,0,.44.53.49.49,0,0,0,.83-.3c0-.18,0-.38,0-.61a7.32,7.32,0,0,0-.11-1.19l1.61-.59a5.35,5.35,0,0,0,.71,1.15,3,3,0,0,0,.28.32.51.51,0,0,0,.86-.3v-.35a8.31,8.31,0,0,0-.11-1.44l1.61-.59a5.19,5.19,0,0,0,.9,1.36l.09.11a.51.51,0,0,0,.86-.31s0,0,0-.06a8.24,8.24,0,0,0-.11-1.73l1.64-.59a6.23,6.23,0,0,0,1,1.47.31.31,0,0,0,.16.1.51.51,0,0,0,.61-.16.41.41,0,0,0,.08-.24,9.57,9.57,0,0,0-.08-1.8l2.57-.94,9.31,25.77-2.54.92a10.54,10.54,0,0,0-1.08-1.44.51.51,0,0,0-.86.31,6.37,6.37,0,0,0,.21,1.76l-1.64.6a8.26,8.26,0,0,0-1.06-1.45.51.51,0,0,0-.86.31,5.63,5.63,0,0,0,.18,1.76l-1.61.59a7.79,7.79,0,0,0-1.06-1.44.5.5,0,0,0-.85.3,5,5,0,0,0,.18,1.76l-1.62.6a6.82,6.82,0,0,0-1.08-1.44.49.49,0,0,0-.84.3,5.63,5.63,0,0,0,.18,1.76Z" style="fill:#fff;opacity:0.6000000000000001"></path><path d="M450.42,457.75c-.17-.75.87-1.41,1.32-.63,5.52,9.71,15.18-4.85,22.23-5a9.16,9.16,0,0,1,4.21.94,8,8,0,0,1,6.57-4.77c8-1.18,14.26,5.39,21.73-1,.48-.41,1.14.29.88.79-4.2,8-12.62,8.39-20.79,8.86.59.51,1.15,1.08,1.84,1.62,2.3,1.81,5.41,2.05,7.79,3.7a14.78,14.78,0,0,1,4.87,5.77c.37.86-1,1.53-1.49.72-2.73-4.78-10.65-.66-14.87-.8-3.3-.1-7.36-1.22-8.72-4.6a5.31,5.31,0,0,1-.11-3.6c-2.54.89-6.16,3-7.3,3.4a23.13,23.13,0,0,1-9.35,1.75C454.94,464.54,451.35,462.05,450.42,457.75Z" style="fill:#37474f"></path></g><g id="freepik--character-1--inject-181"><path d="M165.56,442.62c-2.16-.28-55.34-26-56.75-28.27-.54-.85,2.75-8.82,7-18.33.92-2,1.88-4.16,2.87-6.31,6.39-13.92,13.51-28.53,13.51-28.53l35.62,17.1-14.49,28.07-3.18,6.16s16,18.95,17.24,21.6S167.72,442.89,165.56,442.62Z" style="fill:#f7a9a0"></path><path d="M165.56,442.62c-2.16-.28-55.34-26-56.75-28.27-.65-1,4.34-12.58,9.88-24.64l34.64,16.64-3.18,6.16s16,18.95,17.24,21.6S167.72,442.89,165.56,442.62Z" style="fill:#fff"></path><path d="M165.56,442.62c-2.16-.28-55.34-26-56.75-28.27-.54-.85,2.75-8.82,7-18.33l34.33,16.49s16,18.95,17.24,21.6S167.72,442.89,165.56,442.62Z" style="fill:#FFC727"></path><path d="M165.82,440.12c-8.81-4.53-44.76-22-53.82-25.78-.07,0-.09,0,0,.05,8.63,4.68,44.73,21.84,53.77,25.88C165.94,440.35,166,440.22,165.82,440.12Z" style="fill:#263238"></path><path d="M164.89,430.54a8,8,0,0,0-6.38-.4,7.71,7.71,0,0,0-4.3,3.8c0,.05.08.1.11.05a9.19,9.19,0,0,1,10.52-3.33C164.91,430.69,165,430.58,164.89,430.54Z" style="fill:#263238"></path><path d="M153.18,415.07c-3.54-1.78-8.29-2.52-11.92-.67-.14.07,0,.27.1.26a55.07,55.07,0,0,1,11.67.88A.25.25,0,0,0,153.18,415.07Z" style="fill:#263238"></path><path d="M155.42,417.47c-3.55-1.77-8.29-2.51-11.92-.67-.14.08,0,.27.09.27a55.15,55.15,0,0,1,11.68.87A.25.25,0,0,0,155.42,417.47Z" style="fill:#263238"></path><path d="M157.65,419.88c-3.54-1.77-8.29-2.52-11.92-.67-.14.07,0,.27.1.27a54.36,54.36,0,0,1,11.67.87A.25.25,0,0,0,157.65,419.88Z" style="fill:#263238"></path><path d="M159.89,422.29c-3.55-1.78-8.29-2.52-11.92-.67-.14.07,0,.27.09.26a54.51,54.51,0,0,1,11.68.88A.25.25,0,0,0,159.89,422.29Z" style="fill:#263238"></path><path d="M118.37,407c-4-1.93-7,4.3-3,6.23S122.39,408.9,118.37,407Z" style="fill:#263238"></path><path d="M161.64,407.41c-1.08-2.37-4.06-2-5.93-1a20.78,20.78,0,0,0-7.65,7.56.1.1,0,0,0,.06.15c-.05.29.15.66.5.6,3.39-.53,7.08-.67,10.21-2.23C160.66,411.6,162.67,409.65,161.64,407.41Zm-8,5.47c-1.66.3-3.33.52-5,.88,1.5-1.47,2.93-3,4.57-4.32a20.55,20.55,0,0,1,2.47-1.77c1.34-.81,6.29-2.1,4.76,2C159.59,411.86,155.58,412.52,153.6,412.88Z" style="fill:#263238"></path><path d="M138.55,411c2.88,2,6.51,2.65,9.79,3.65a.48.48,0,0,0,.58-.52c.07,0,.12-.07.09-.15a20.86,20.86,0,0,0-6.51-8.56c-1.7-1.27-4.61-2.05-6,.14S136.87,409.86,138.55,411Zm-1.17-3.07c-.93-4.23,3.78-2.26,5-1.27a23,23,0,0,1,2.19,2.11,61.57,61.57,0,0,1,3.91,4.92c-1.58-.6-3.2-1.05-4.8-1.58C141.77,411.49,137.9,410.27,137.38,407.94Z" style="fill:#263238"></path><path d="M108.81,414.35c1.09,1.77,33.69,17.8,49,24.91l-43.5-39.86C110.83,407.35,108.33,413.6,108.81,414.35Z" style="opacity:0.1"></path><path d="M118.06,387.58l38,16.61s25.93-48.28,23.79-67.4c-2.41-21.46-24-84.18-24-84.18H113.06S137.26,315,138.74,337C139.33,345.67,118.06,387.58,118.06,387.58Z" style="fill:#FFC727"></path><path d="M118.06,387.58l38,16.61s25.93-48.28,23.79-67.4c-2.41-21.46-24-84.18-24-84.18H113.06S137.26,315,138.74,337C139.33,345.67,118.06,387.58,118.06,387.58Z" style="opacity:0.6000000000000001"></path><path d="M123.51,382.23c5.84,2.06,11.59,4.4,17.29,6.83,2.82,1.21,5.65,2.41,8.46,3.65s5.65,2.66,8.48,4a.09.09,0,0,1-.07.17c-2.94-1.08-5.88-2.09-8.78-3.26s-5.69-2.33-8.53-3.51c-5.72-2.38-11.42-4.85-17-7.59A.16.16,0,0,1,123.51,382.23Z" style="fill:#263238"></path><path d="M141.08,349.7c.72-2.05,1.43-4.09,2.12-6.15a26.49,26.49,0,0,0,1.58-6.32,21.4,21.4,0,0,0-.87-6.88c-.53-2.12-12.47-36-15.13-44.47q-4.48-14.28-9.49-28.42c-.1-.29.37-.4.48-.11,6.09,16.82,23.73,68.4,24.3,70.61a48.43,48.43,0,0,1,1.4,6.38c.51,4.31-1.15,8.38-2.51,12.38-1.43,4.2-9.48,24.87-13.88,33.75-.05.09-.21,0-.17-.08C132.24,372.3,139.61,353.88,141.08,349.7Z" style="fill:#263238"></path><path d="M157,447.18c-2.07.67-61.14.1-63.38-1.35-.86-.54-1.27-9.15-1.49-19.57,0-2.24-.08-4.57-.1-6.93-.15-15.31,0-31.57,0-31.57l39.51.27-1.13,31.56-.24,6.93S152.72,436.85,155,438.7,159.05,446.5,157,447.18Z" style="fill:#f7a9a0"></path><path d="M157,447.18c-2.07.67-61.14.1-63.38-1.35-1-.66-1.44-13.23-1.59-26.5l38.43.26-.24,6.93S152.72,436.85,155,438.7,159.05,446.5,157,447.18Z" style="fill:#fff"></path><path d="M157,447.18c-2.07.67-61.14.1-63.38-1.35-.86-.54-1.27-9.15-1.49-19.57l38.09.26S152.72,436.85,155,438.7,159.05,446.5,157,447.18Z" style="fill:#FFC727"></path><path d="M156.15,444.8c-9.9-.33-49.86-.76-59.67-.35-.08,0-.08.06,0,.07,9.8.55,49.77.65,59.67.45C156.36,445,156.36,444.81,156.15,444.8Z" style="fill:#263238"></path><path d="M151.23,436.54a8,8,0,0,0-5.95,2.36,7.71,7.71,0,0,0-2.26,5.27c0,.06.11.06.12,0a9.18,9.18,0,0,1,8.09-7.5A.07.07,0,0,0,151.23,436.54Z" style="fill:#263238"></path><path d="M134,427.54c-4-.09-8.57,1.26-11.06,4.48-.1.13.08.26.2.2A55.19,55.19,0,0,1,134.1,428,.25.25,0,0,0,134,427.54Z" style="fill:#263238"></path><path d="M137.08,428.76c-4-.09-8.57,1.27-11.06,4.48-.1.13.08.26.2.2a55.19,55.19,0,0,1,10.93-4.19A.25.25,0,0,0,137.08,428.76Z" style="fill:#263238"></path><path d="M140.13,430c-4-.1-8.57,1.26-11.07,4.48-.09.12.09.26.2.2a54,54,0,0,1,10.93-4.19A.25.25,0,0,0,140.13,430Z" style="fill:#263238"></path><path d="M143.18,431.21c-4-.09-8.57,1.26-11.07,4.48-.09.12.08.26.2.2a54.58,54.58,0,0,1,10.93-4.19A.25.25,0,0,0,143.18,431.21Z" style="fill:#263238"></path><path d="M99.09,435.07c-4.44,0-4.5,6.88,0,6.91S103.55,435.1,99.09,435.07Z" style="fill:#263238"></path><path d="M138.42,417c-2-1.69-4.54-.08-5.79,1.63a20.88,20.88,0,0,0-3.7,10.1.11.11,0,0,0,.12.12.49.49,0,0,0,.71.32c2.85-1.92,6.12-3.63,8.29-6.37C139.31,421.21,140.3,418.6,138.42,417Zm-4.95,8.37c-1.37,1-2.78,1.89-4.12,2.92.73-2,1.36-3.95,2.29-5.85a23,23,0,0,1,1.47-2.66c.88-1.3,4.8-4.57,5.15-.26C138.46,421.91,135.11,424.22,133.47,425.38Z" style="fill:#263238"></path><path d="M119.07,430.12c3.45.56,7-.39,10.41-.88a.49.49,0,0,0,.31-.72.11.11,0,0,0,0-.17,20.88,20.88,0,0,0-9.54-5c-2.09-.42-5,.11-5.38,2.7S117.06,429.79,119.07,430.12Zm-2.37-2.28c-2.65-3.43,2.46-3.65,4-3.28a22.67,22.67,0,0,1,2.88,1,62.73,62.73,0,0,1,5.64,2.78c-1.69.14-3.34.42-5,.62C122.18,429.17,118.16,429.73,116.7,427.84Z" style="fill:#263238"></path><path d="M90.28,416h43.19s1.18-45.09,2.75-61.41c1.67-17.35,1.83-71.59,1.83-71.59l4.85-1.55c6.08-3.84,12.24-23.43,12.94-28.83H99.37s-8.23,23.51-3.82,38.05c0,0-.22,51.1-1.15,60.27C92.66,368.16,90.28,416,90.28,416Z" style="fill:#FFC727"></path><path d="M90.28,416h43.19s1.18-45.09,2.75-61.41c1.67-17.35,1.83-71.59,1.83-71.59l4.85-1.55c6.08-3.84,12.24-23.43,12.94-28.83H99.37s-8.23,23.51-3.82,38.05c0,0-.22,51.1-1.15,60.27C92.66,368.16,90.28,416,90.28,416Z" style="opacity:0.6000000000000001"></path><path d="M144.22,280.67a96.72,96.72,0,0,0-13.15,4.72c-.17.07-.06.27.12.21,4.43-1.47,8.95-2.87,13.27-4.52C144.8,281,144.57,280.58,144.22,280.67Z" style="fill:#263238"></path><path d="M145.63,257.26c0-.11-.28-.14-.28,0a87.81,87.81,0,0,1-.74,11.4c-.21,1.75-2,11.47-6,10.76-.67-.12-1-.62-1.11-1.39a9.7,9.7,0,0,1,.53-3,60.74,60.74,0,0,0,1-6.13,43.34,43.34,0,0,0-.16-11.49c0-.12-.26-.11-.26,0a81.16,81.16,0,0,1-1.2,15.86c-.5,2.53-2.15,6.33,1.28,6.72s5.75-6,6.18-7.71A45,45,0,0,0,145.63,257.26Z" style="fill:#263238"></path><path d="M138.71,279.67a15.57,15.57,0,0,0-.89,2,3.62,3.62,0,0,0-.37,1.66c0,.1.2.11.28,0a5.29,5.29,0,0,0,.92-1.61c.3-.62.62-1.24.89-1.87C139.73,279.48,138.93,279.27,138.71,279.67Z" style="fill:#263238"></path><path d="M93.32,408.65c6.18-.38,12.39-.46,18.58-.44q4.62,0,9.22.06c3.14,0,6.24.25,9.37.38a.1.1,0,0,1,0,.19c-3.12.14-6.23.35-9.36.41s-6.14.07-9.22.09c-6.19,0-12.4,0-18.58-.38A.16.16,0,0,1,93.32,408.65Z" style="fill:#263238"></path><path d="M137.94,282.82a.14.14,0,0,1,.28,0c.29,14.17-2.77,100.05-3.73,108.6a.09.09,0,0,1-.18,0C134.45,383.76,137.33,287.07,137.94,282.82Z" style="fill:#263238"></path><path d="M104.24,272.84c3.94-.52,8.14-1,10.82-4.31a14.52,14.52,0,0,0,2.61-5.19c.63-2.13.85-4.35,1.48-6.46a.07.07,0,0,1,.14,0,21.3,21.3,0,0,1-.82,7.1,13.94,13.94,0,0,1-2.76,5.28c-2.88,3.3-7.32,3.81-11.45,3.76A.1.1,0,0,1,104.24,272.84Z" style="fill:#263238"></path><path d="M100.68,303.26c.3-5.12.61-10.16-.62-15.19a41.7,41.7,0,0,1-1.4-8.07,52.43,52.43,0,0,1,.34-8.5,83.32,83.32,0,0,1,3.38-16.17.15.15,0,0,1,.28.08,89.29,89.29,0,0,0-3,14.91c-.57,5.08-.83,10.3.41,15.3a46,46,0,0,1,1.44,7.08,52.57,52.57,0,0,1,0,7.21c-.26,5.21-3.18,94.06-4.35,105.75,0,.12-.19.12-.19,0C97.45,395.18,100.37,308.5,100.68,303.26Z" style="fill:#263238"></path><path d="M137.53,199.49c.23,8.83,2.66,41.42,10.86,50.49,5.53,6.1,34.22,11.25,41.65,10.87,3-.15,4.36-23.47,1.37-24.75-3.25-1.4-25.66-2.78-27.51-4.35s-10.63-21.73-17-32.56C143.06,192.71,137.4,194.52,137.53,199.49Z" style="fill:#f7a9a0"></path><path d="M181.56,260.22c5.4,2,24.95,4.76,28.94,4.33s15.38-2.52,15.36-5.61-3.41-2.74-3.41-2.74,5.14-1.73,4.37-4.75c-.62-2.42-5.41-2.19-5.41-2.19s5.53-2.18,4.38-5.08c-1-2.65-6.15-1.09-6.15-1.09s4.45-2.3,3-4.65c-1.81-2.83-9.5,1.14-13.94,1.29-1,0-24.52-4.35-24.52-4.35Z" style="fill:#f7a9a0"></path><path d="M219.71,242.83c-6.06,2.39-8.64,3.2-14.88,2.64-.12,0-.17.17,0,.19,6.06,1.1,9.19.36,15.08-2.56C220.15,243,220,242.72,219.71,242.83Z" style="fill:#263238"></path><path d="M221.37,249.22c-6.15,2.51-9.33,2.7-15.91,2.6-.09,0-.11.15,0,.16,6.45.64,10.23.73,16.05-2.58C221.76,249.25,221.65,249.11,221.37,249.22Z" style="fill:#263238"></path><path d="M222.12,256.19c-6.12,2-9.65,2.53-16,1.61-.15,0-.2.2,0,.23,6.41,1.57,10.81.94,16.11-1.65C222.53,256.21,222.51,256.07,222.12,256.19Z" style="fill:#263238"></path><path d="M209.59,260.72c-9.92,3.49-16.08-8.77-16-10.86,0-.63,2-4,4.75-8.25.32-.49,2.55.7,2.88.18.48-.72-.92-3.19-.41-3.94.31-.47,1.38.88,1.7.41s-.25-2.56,0-2.95c.14-.2.26-.4.4-.61,2.59-3.78,5.18-7.4,6.93-9.63,1.1-1.39,1.86-2.22,2.12-2.23,8.53-.07,17.39,12.87,16.67,14.88-.05.15-2.19,2.86-5,6.38-.57.71-2.8,1.27-3.41,2-.84,1-.07,2.27-.95,3.33-.71.9-2.38.58-3.09,1.43-.3.37.35,1.94.06,2.29l-1,1.16c-2,2.43-3.76,4.46-4.78,5.53A4.56,4.56,0,0,1,209.59,260.72Z" style="fill:#455a64"></path><path d="M212.75,223.89c-.7.75,1.8,5.05,5.4,8.57,3.76,3.69,8.67,6.55,9.59,4.75.54-1.07-2.78-5.68-6.6-9C217.5,225.1,213.38,223.22,212.75,223.89Z" style="fill:#ebebeb"></path><path d="M210.5,259.88c1.91-9-4.43-16.89-7.6-25.18,2.59-3.78,5.18-7.4,6.93-9.63-4,7.89-1.38,15.21,2.59,23a55.49,55.49,0,0,1,2.86,6.27C213.25,256.78,211.52,258.81,210.5,259.88Z" style="opacity:0.1"></path><path d="M184.13,235.38s7.74-2.55,11.31-3,13.44-3.09,15.61-.9c2.44,2.46-5.37,7.54-11.71,8.38,0,0-1.7,10.37-7.76,11.47-1.31.24-8-1.26-8.93-2.48Z" style="fill:#f7a9a0"></path><path d="M198.72,240.19c-.52,4.06-2.73,9-6.43,10.7a.09.09,0,0,0,.06.17c4.23-1.3,6.84-7,7.08-10.63C199.48,239.73,198.86,239.14,198.72,240.19Z" style="fill:#263238"></path><path d="M182.44,234.6l-.88,25.62a6.52,6.52,0,0,1-7,2.54c-4.67-1.12-23.16-6.87-27.44-13.17s-10-32.84-10-47.59,9.08-5,10.4-2.57,16.36,31.14,17.21,31.75,9.41.6,12.94,1.25S182.44,234.6,182.44,234.6Z" style="fill:#455a64"></path><path d="M137.18,202c0,14.77,5.66,41.3,9.94,47.6,4.12,6,21.35,11.6,26.84,13l-32.5-68.46C139.21,193.54,137.19,195.06,137.18,202Z" style="opacity:0.1"></path><path d="M174.36,260.21c-.07-2.14.14-4.29.27-6.42s.27-4.19.43-6.28c.31-4.22.53-8.48,1.11-12.67a.08.08,0,0,1,.15,0c.09,4.29-.24,8.59-.53,12.84q-.22,3.21-.52,6.4a57.36,57.36,0,0,1-.75,6.15C174.5,260.34,174.37,260.29,174.36,260.21Z" style="fill:#263238"></path><path d="M98.94,253.3c0-.06,59,3.49,59,3.49a9.39,9.39,0,0,0,1.78-7.32c-1.94-11.89-8.21-33.56-13.37-48.7-3.1-9.12-12.34-10.61-18.87-6.15-13,8.86-25,35.81-28.79,49.7A15.09,15.09,0,0,0,98.94,253.3Z" style="fill:#455a64"></path><path d="M149.58,222.09c-2.25,5.18-7.57,8.21-7.57,8.21s-5.31-3.15-7.53-8.37c-1.85-4.36-.66-9,2.28-10,4.21-1.42,5.28,4.17,5.28,4.17s1.09-5.57,5.31-4C150.28,213.08,151.45,217.78,149.58,222.09Z" style="fill:#fff"></path><path d="M142,231.84a3.92,3.92,0,0,1,1.69-3.93,22.56,22.56,0,0,1,3.36-1.2,12.67,12.67,0,0,0,2.48-1.38s-.63,8.43-7.26,7.19a5.78,5.78,0,0,1,1.66-2.63,13.32,13.32,0,0,1,2.41-1.77A7.34,7.34,0,0,0,142,231.84Z" style="fill:#263238"></path><path d="M142,231.84a4,4,0,0,0-1.67-4A23.42,23.42,0,0,0,137,226.6a12.39,12.39,0,0,1-2.48-1.43s.59,8.44,7.23,7.34a6,6,0,0,0-1.65-2.66,13.62,13.62,0,0,0-2.4-1.82A7.53,7.53,0,0,1,142,231.84Z" style="fill:#263238"></path><path d="M123.65,197.3c-13.45,10.84-36.5,40.59-34.23,47.77,4.19,13.24,37.17,24.66,44.16,26.88,3,.95,11-27.08,7.82-28.16-2.76-.94-22.45-5.23-23-7.68-.21-1,6.8-14.89,11.86-30.89C134.18,193,127.63,194.09,123.65,197.3Z" style="fill:#f7a9a0"></path><path d="M137.4,242.9A92.65,92.65,0,0,0,148.85,245c6.42.9,20.89,7.51,25.53,25.14,1.77,6.76-2.19,11-5.28,4.26-2.18-4.71-3.29-8.16-4.43-9.5,0,0-1.88,7.72-6.16,9.42A85.29,85.29,0,0,1,147,278a18,18,0,0,1-.88-2.09,9.67,9.67,0,0,1-9.93-2.78l-6.49-2.88Z" style="fill:#f7a9a0"></path><path d="M154.11,247.52c2.29,2.52,7,7.93,9.39,13.72,2.61,6.42,5.91,19.5,1.15,21.38-3.5,1.37-5.19-3.51-5.19-3.51s.22,5.69-3.21,6.25c-3.12.5-4.21-3.35-4.21-3.35s-.45,3.47-3.56,3.38c-3.73-.11-2.15-7.38-5.83-10.76C141.82,273.87,154.11,247.52,154.11,247.52Z" style="fill:#f7a9a0"></path><path d="M156.25,262.86a27.6,27.6,0,0,1,3.3,16.14c0,.14-.14.2-.15.07a68,68,0,0,0-3.21-16.18A0,0,0,0,1,156.25,262.86Z" style="fill:#263238"></path><path d="M149.85,265.68c1.28,2.51,3.43,10,2.32,16.31,0,.14-.15.19-.15.06a72.82,72.82,0,0,0-2.24-16.34S149.83,265.65,149.85,265.68Z" style="fill:#263238"></path><path d="M134.89,241.93l-5.67,28.6s-6.34,2.3-11.09.42-29-18-29.23-26.85,21.73-36.3,31.9-45.15,13.51-6.31,10.15,6.89-11.73,30-11.64,30.35,6.56.33,9.22.89S134.89,241.93,134.89,241.93Z" style="fill:#455a64"></path><path d="M129.58,214.73c-.64,1.13-1.36,2.24-2.08,3.32-.33.49-.67,1-1,1.48,1.06-2.68,2.08-5.37,3-8.08,0-.09-.1-.13-.14-.06q-3,6.17-5.57,12.48A107.52,107.52,0,0,0,119,236.43c0,.12.14.18.2.07A110.6,110.6,0,0,0,124.73,224c.42-1,.82-2.06,1.23-3.1.28-.32.56-.66.83-1,.39-.52.74-1.06,1.08-1.61.68-1.14,1.27-2.31,1.84-3.51A.07.07,0,0,0,129.58,214.73Z" style="fill:#263238"></path><path d="M134.89,241.93a15.82,15.82,0,0,0-4.7-4.3c-1.91-1.09-4.12-1.25-6.27-1.51q-3.58-.42-7.2-.51a1.8,1.8,0,0,0-.55-.19c-.24-.07-.49-.11-.74-.16a17.54,17.54,0,0,0-2.89-.34c-.06,0-.06.08,0,.08.7.08,1.4.19,2.09.31.36.06.72.12,1.08.2l.45.1q-3.18-.06-6.36.16c-.08,0-.1.14,0,.14,4.48.08,9,.33,13.41.85,2.21.25,4.63.36,6.55,1.58a54.07,54.07,0,0,1,5,3.73C134.86,242.14,135,242,134.89,241.93Z" style="fill:#263238"></path><path d="M124.4,265.43c.19-2,.66-4,1-6s.76-3.93,1.17-5.89c.81-4,1.54-8,2.6-11.86a.08.08,0,0,1,.15,0c-.44,4.07-1.29,8.1-2.08,12.09q-.6,3-1.28,6a55.9,55.9,0,0,1-1.46,5.73C124.52,265.57,124.4,265.52,124.4,265.43Z" style="fill:#263238"></path><path d="M130.75,194.49c.11,1.33,5,10.61,10.92,11.23,1.93.19,3.47-10.29,3.47-10.29l.29-.75,4.06-10.47-13.17-11.46S130.72,193.92,130.75,194.49Z" style="fill:#f7a9a0"></path><path d="M149.49,184.21l-4.07,10.47-.28.75s-.29,1.9-.75,4.06c-7.84-2.4-10.6-9-11.57-13.38,1.58-6.12,3.5-13.36,3.5-13.36Z" style="fill:#263238"></path><path d="M172,162.91c4.2,25.53-10.62,30.94-16.13,31.84-5,.81-22.12,3-28.94-22s3.73-35,15.06-37.46S167.82,137.38,172,162.91Z" style="fill:#f7a9a0"></path><path d="M166.48,166.48c2.85-.34,3.32,5.39.68,5.71S164.09,166.77,166.48,166.48Z" style="fill:#263238"></path><path d="M153.33,168.14c-2.86.23-2.19,5.94.46,5.72S155.73,168,153.33,168.14Z" style="fill:#263238"></path><path d="M167.82,163.89a16.06,16.06,0,0,1-1.7-.55,2.91,2.91,0,0,1-1.63-.9.91.91,0,0,1,.13-1.11,2.24,2.24,0,0,1,2.29-.29,3.35,3.35,0,0,1,2,1.4A1,1,0,0,1,167.82,163.89Z" style="fill:#263238"></path><path d="M151,166c.58-.21,1.07-.5,1.62-.76a2.86,2.86,0,0,0,1.5-1.09.9.9,0,0,0-.26-1.09,2.27,2.27,0,0,0-2.31,0,3.44,3.44,0,0,0-1.78,1.64A1,1,0,0,0,151,166Z" style="fill:#263238"></path><path d="M155.22,183.78c.44.39.88.95,1.52,1a4.83,4.83,0,0,0,1.88-.5s.11,0,.08.09a2.38,2.38,0,0,1-2.21,1,1.86,1.86,0,0,1-1.43-1.51C155,183.76,155.16,183.72,155.22,183.78Z" style="fill:#263238"></path><path d="M162.23,176.64s.6,2.59.71,3.83c0,.11-.28.2-.7.26a0,0,0,0,1-.05,0,5.89,5.89,0,0,1-5.9-1.68c-.1-.11.05-.25.17-.19a8.88,8.88,0,0,0,5.5,1.06c.06-.35-1.17-4.45-1-4.43.84.06,2.32.3,2.87.38-.35-1.69-1.58-6.44-2.21-9.52,0-.19.25-.28.31-.11a82.87,82.87,0,0,1,3.26,10.58C165.28,177.1,162.75,176.81,162.23,176.64Z" style="fill:#263238"></path><g style="opacity:0.2"><path d="M143.9,175.31a.42.42,0,0,1-.48.33.41.41,0,0,1-.34-.48.42.42,0,0,1,.48-.34A.42.42,0,0,1,143.9,175.31Z"></path><path d="M152.56,176.46a.41.41,0,0,1-.48.33.42.42,0,0,1-.34-.48.42.42,0,1,1,.82.15Z"></path><path d="M149,178.93a.42.42,0,1,1-.33-.49A.42.42,0,0,1,149,178.93Z"></path><path d="M144.74,172a.41.41,0,0,1-.48.33.42.42,0,0,1-.34-.48.43.43,0,0,1,.49-.34A.42.42,0,0,1,144.74,172Z"></path><path d="M148.38,175a.42.42,0,0,1-.48.34.42.42,0,1,1,.14-.82A.41.41,0,0,1,148.38,175Z"></path><path d="M170.59,172.88a.43.43,0,0,1-.49.34.42.42,0,1,1,.49-.34Z"></path><path d="M167,174.63a.42.42,0,0,1-.82-.14.42.42,0,1,1,.82.14Z"></path><path d="M167.29,177.49A.42.42,0,1,1,167,177,.42.42,0,0,1,167.29,177.49Z"></path><path d="M170.42,176.11a.41.41,0,0,1-.48.34.43.43,0,0,1-.34-.49.41.41,0,0,1,.49-.33A.41.41,0,0,1,170.42,176.11Z"></path></g><path d="M128,177.92s-7.15-14.66-5.29-24.27c.84-4.34,6.31-8.93,6.31-8.93s20.68-18.76,40-1.41c2.24,2,7.82,8-2.93,11.7-10.47,3.62-30.59-2.79-30.59-2.79a71.91,71.91,0,0,1-2.31,21.23A6.56,6.56,0,0,1,128,177.92Z" style="fill:#263238"></path><path d="M168.28,139.67c-3.18.2-19.49,5.75-25.9,11.2S126.1,171,125.6,171.77s-12.23-25.33,8.25-37C156.15,122,168.28,139.67,168.28,139.67Z" style="fill:#FFC727"></path><path d="M126.52,170.27s8.65-23.66,15.38-30.52,24.07-14.91,36.78-13.42c9.9,1.16-8,18.94-8,18.94a6.33,6.33,0,0,0-4.69-3.18c-6.12-.48-15.95,4.36-21.24,8.16C138.15,155,126.52,170.27,126.52,170.27Z" style="fill:#FFC727"></path><path d="M126.52,170.27s8.65-23.66,15.38-30.52,24.07-14.91,36.78-13.42c9.9,1.16-8,18.94-8,18.94a6.33,6.33,0,0,0-4.69-3.18c-6.12-.48-15.95,4.36-21.24,8.16C138.15,155,126.52,170.27,126.52,170.27Z" style="opacity:0.2"></path><path d="M133.48,172.84s-6.25-7.62-9.75-5.33,1.63,13.63,6,14.9a4.37,4.37,0,0,0,5.66-2.79Z" style="fill:#f7a9a0"></path><path d="M125.28,170.72c-.07,0-.07.1,0,.12,3.1,1,4.9,3.66,6.23,6.46-1-1-2.24-1.56-3.65-.38-.08.06,0,.18.09.16a2.67,2.67,0,0,1,3,.71,12.13,12.13,0,0,1,1.6,2.28c.16.25.64.07.51-.23l0-.07C132.82,175.93,129.43,170.79,125.28,170.72Z" style="fill:#263238"></path></g><g id="freepik--character-2--inject-181"><path d="M154.62,438.28s49.12,23.08,90.43,15.14c19.88-3.83,25.93-26.86,20.81-34.85-5.24-8.15-24.17-19-34.33-25.92-3.2-2.16-4.59-6.37-4.59-6.37l-37.4-.23s-8.21,9.22-4.12,16.46c.06.13,6.39,4.44,6.49,4.56L171.26,401Z" style="fill:#d3766a"></path><path d="M185.42,402.51c2,2.28,32.53,20.74,32.53,20.74s21.74-14.41,41-12.57c0,0-26.55-18.12-28-19.21-2-1.5-2.9-5.18-2.9-5.18l-38.47-.24S179.22,395.58,185.42,402.51Z" style="fill:#37474f"></path><path d="M249.73,405.42a56.93,56.93,0,0,0-28.34,7.9,63.5,63.5,0,0,0-7,5c-.09.07,0,.23.1.16a65.29,65.29,0,0,1,12.89-7.18,71.18,71.18,0,0,1,14-4.29,66.15,66.15,0,0,1,8.41-1.15C250,405.8,250,405.41,249.73,405.42Z" style="fill:#263238"></path><path d="M102.85,450.68c-.15,2.37,6.64,3,9.44,1.4a64.9,64.9,0,0,0,6.46-5.44c6.72-6.08,16-15,16-15L175.47,445l14.28-36.65s-16.53-6.75-32.24-12.79c-2.41-.93-4.8-1.83-7.11-2.7l-.43-.16c-10.54-3.91-19.27-6.86-20.16-6.22C127.43,388.17,103,448.29,102.85,450.68Z" style="fill:#d3766a"></path><path d="M177.74,402.75l-14.37,39.64-28.62-10.74s-9.28,8.9-16,15a63.1,63.1,0,0,1-6.46,5.43c-2.81,1.57-9.59,1-9.43-1.4s24.57-62.51,27-64.21c.88-.64,9.6,2.31,20.15,6.22l.42.16c2.33.87,4.71,1.78,7.12,2.69Z" style="fill:#ebebeb"></path><path d="M101.5,451.53c.18-2.47,26.08-64.32,28.56-66,.46-.33,7.68,2,16.05,4.8,8.7,2.91,18.65,6.35,23.85,9l-16,41.93L134.37,433s-20.2,18.47-23.12,20.08S101.32,454,101.5,451.53Z" style="fill:#FFC727"></path><path d="M104.35,451.68c4.59-10.26,22.16-52.09,25.93-62.58,0-.09,0-.11-.07,0-4.78,10.07-22,52-26,62.54C104.09,451.83,104.25,451.89,104.35,451.68Z" style="fill:#263238"></path><path d="M115.14,450a9.06,9.06,0,0,0,.07-7.27,8.79,8.79,0,0,0-4.57-4.63c-.06,0-.11.09,0,.12A10.44,10.44,0,0,1,115,450,.07.07,0,0,0,115.14,450Z" style="fill:#263238"></path><path d="M101.49,451.52c-.17,2.48,6.85,3.16,9.75,1.56S134.36,433,134.36,433l19.6,8.25,13.59-35.61-43.19-9C116,415,101.63,449.69,101.49,451.52Z" style="opacity:0.1"></path><path d="M223.48,386.27,164,385.89s-7.61,18.79-3.53,26.05,46.13,17.18,46.13,17.18l-58.61-19.49L132.1,447.68c60.56,22.3,86.3,18.82,99.69,14.65,11.44-3.56,22.07-24.91,16.77-32.79-7.34-10.89-32.42-29.13-32.42-29.13Z" style="fill:#d3766a"></path><path d="M162.72,385.85l61.76.4-8.34,14.16c11,8.62,20.79,17,20.79,17s-15.75-4.69-39.08,9.5c0,0-10.94-4-21.34-7.57-8.45-2.91-16.6-5-17.8-8.81C156,402,162.72,385.85,162.72,385.85Z" style="fill:#37474f"></path><path d="M187,389.9c0-.17-.28-.28-.35-.09-.32.78-.44,1.64-.7,2.44s-.51,1.74-.82,2.6a10.27,10.27,0,0,1-2.84,4.36,11.11,11.11,0,0,1-4.77,2.21,30.56,30.56,0,0,1-5.55.8.09.09,0,0,0,0,.18,13.9,13.9,0,0,0,2.88.25,19.92,19.92,0,0,0,3.09-.12,10.53,10.53,0,0,0,5.25-2,9.73,9.73,0,0,0,3-4.67,17.62,17.62,0,0,0,.79-5.92Z" style="fill:#263238"></path><path d="M223.35,388.14c-.55.84-1.16,1.66-1.74,2.48s-1.14,1.77-1.68,2.66c-1,1.56-1.82,3.23-2.87,4.73a4.51,4.51,0,0,1-1.66,1.53c-.63.3-1.65.38-2-.39a3,3,0,0,1,.29-2.11c.37-.92.77-1.83,1.15-2.75.89-2.1,1.69-4.21,2.47-6.34,0-.11-.11-.16-.17-.07a55.9,55.9,0,0,0-3.49,6.29c-.71,1.52-2.09,3.66-1.42,5.41s3,1.61,4.29.63c1.51-1.14,2.38-3,3.25-4.66.64-1.21,1.3-2.41,1.92-3.63s1.12-2.51,1.73-3.74C223.46,388.13,223.38,388.09,223.35,388.14Z" style="fill:#263238"></path><path d="M226.12,411.93a42.42,42.42,0,0,0-17.05,2.76,86.64,86.64,0,0,0-15.61,7.6.09.09,0,0,0,.09.16c5.22-2.41,10.33-5,15.76-6.93a58.72,58.72,0,0,1,16.81-3.5C226.18,412,226.17,411.94,226.12,411.93Z" style="fill:#263238"></path><path d="M216.16,400.43a260.37,260.37,0,0,1,23,18.35c3.18,2.83,6.54,5.65,8.94,9.22a15.09,15.09,0,0,1,2.33,5.32,14.49,14.49,0,0,1-.36,6.64,43,43,0,0,1-7,13.85c-.08.11-.26,0-.18-.11a39.71,39.71,0,0,0,5.87-12.1,17.2,17.2,0,0,0,.87-7.29,13.8,13.8,0,0,0-2.16-5.4c-2.26-3.49-5.55-6.28-8.6-9-3.47-3.15-7-6.24-10.66-9.19-4.09-3.32-8.22-6.59-12.44-9.75C215.54,400.71,215.84,400.21,216.16,400.43Z" style="fill:#263238"></path><path d="M214.26,432.59c-2.59-1.15-5.27-2.1-7.92-3.12-1-.37-1.92-.73-2.88-1.08,1.61.38,3.23.84,4.87,1.08a.12.12,0,1,0,.06-.24,31.47,31.47,0,0,0-4.88-1.25c-.75-.15-1.51-.28-2.27-.41l-2.83-1c-5.36-1.94-10.74-3.81-16.11-5.72q-16.17-5.73-32.4-11.28c-3-1-6-2.05-9.05-3.08s-6.16-1.94-9.21-3c-.08,0-.12.11,0,.14,2.72,1,5.39,2.13,8.11,3.13l7.92,2.91c5.36,2,10.73,3.89,16.1,5.82,10.73,3.86,21.48,7.64,32.23,11.43,3,1.05,5.95,2.09,8.94,3.08s6.12,2.06,9.23,2.89C214.31,433,214.44,432.67,214.26,432.59Z" style="fill:#263238"></path><path d="M84.87,461.49c-.15,2.38,6.63,3,9.44,1.41a65.51,65.51,0,0,0,6.45-5.44c6.72-6.09,16-15,16-15l40.71,13.34,14.28-36.65s-16.52-6.76-32.24-12.8c-2.41-.93-4.79-1.82-7.11-2.69l-.43-.17c-10.54-3.9-19.27-6.85-20.15-6.21C109.45,399,85,459.11,84.87,461.49Z" style="fill:#d3766a"></path><path d="M159.75,413.56l-14.36,39.65-28.62-10.74s-9.29,8.9-16,15a60.65,60.65,0,0,1-6.46,5.43c-2.8,1.57-9.59,1-9.43-1.4s24.58-62.5,27-64.21c.88-.63,9.61,2.31,20.15,6.22l.43.17,7.11,2.69Z" style="fill:#ebebeb"></path><path d="M83.51,462.34c.19-2.46,26.09-64.31,28.57-66,.46-.32,7.67,2,16,4.8,8.7,2.91,18.65,6.36,23.84,9l-16,41.93-19.59-8.25S96.19,462.29,93.27,463.9,83.33,464.81,83.51,462.34Z" style="fill:#FFC727"></path><path d="M86.36,462.49c4.6-10.26,22.17-52.08,25.93-62.58,0-.08,0-.11-.06,0-4.78,10.07-22,52-26,62.53C86.11,462.64,86.26,462.71,86.36,462.49Z" style="fill:#263238"></path><path d="M97.16,460.85a9,9,0,0,0,.06-7.26A8.76,8.76,0,0,0,92.66,449a.07.07,0,0,0-.06.13A10.44,10.44,0,0,1,97,460.8.07.07,0,0,0,97.16,460.85Z" style="fill:#263238"></path><path d="M229.38,265.87c1.82.15,9.7-1.09,15.27,5.89,5.27,6.6,7.87,27.22,9.13,31.69s7.19,4.9,8.8,10.08c1.38,4.45-1.83,6.24-2,9.56-.16,2.57,2.58,6.31.4,10.2-2,3.53-5.75,3-8,4.13s-3.41,6.46-7.53,8-8-2.08-10.19-2-4.57,7-11.83,6.73-9.61-6.33-12.64-7.42-10.46,1.31-14-2.29-4.37-8.55-6-10.32-4.83-1.35-6.92-5.52,1.74-7,2.15-10.73c.28-2.59-2.1-4.85-.65-8.84,2-5.48,8.62-4.6,10.91-10.24,1.8-4.42,5.1-23.46,16.32-28.58C220.31,262.75,229.38,265.87,229.38,265.87Z" style="fill:#263238"></path><path d="M253.51,302.37a6.5,6.5,0,0,0,2,2.35l2.44,1.94a19.61,19.61,0,0,1,4.34,4.23,6.25,6.25,0,0,1,.93,5.47,9.55,9.55,0,0,1-1.41,2.57,11,11,0,0,0-1.68,2.82,5.36,5.36,0,0,0,.44,3.39c.37,1,.79,1.93,1.11,2.89a7.41,7.41,0,0,1,0,5.68,4.25,4.25,0,0,1-1.9,2,7.75,7.75,0,0,1-2.86.74c-1,.11-2.05.12-3.09.18a5.28,5.28,0,0,0-3,.81,5.55,5.55,0,0,1,3-.49c1,0,2.07.11,3.13.08a8.3,8.3,0,0,0,3.15-.65,5,5,0,0,0,2.39-2.3c1.14-2,.82-4.44.16-6.42-.32-1-.73-2-1.07-2.94a4.3,4.3,0,0,1-.36-2.66c.55-1.67,2.36-3.23,3-5.4a7,7,0,0,0-1.21-6.32,20,20,0,0,0-4.75-4.18l-2.59-1.72A7,7,0,0,1,253.51,302.37Z" style="fill:#263238"></path><path d="M202.45,277.36c-1.84,3.26-2.92,6.85-4.33,10.27-.71,1.7-1.36,3.44-2.19,5.06a12.55,12.55,0,0,1-1.39,2.25,1.89,1.89,0,0,1-.41.43,1.91,1.91,0,0,1-.49.34,12.34,12.34,0,0,1-1.2.62,55.06,55.06,0,0,0-5,2.58,9.53,9.53,0,0,0-3.91,4.25,6,6,0,0,0-.46,2.93,7.54,7.54,0,0,0,1,2.72,12.06,12.06,0,0,1,2,5.13,11.29,11.29,0,0,0-1.43-5.38,7.27,7.27,0,0,1-.73-2.54,5.06,5.06,0,0,1,.54-2.49,9.28,9.28,0,0,1,3.65-3.7A52.92,52.92,0,0,1,193,297.4c.42-.21.84-.43,1.26-.69a3.94,3.94,0,0,0,1.18-1,12.82,12.82,0,0,0,1.49-2.49,45.45,45.45,0,0,0,2.07-5.23l1.7-5.31A51,51,0,0,1,202.45,277.36Z" style="fill:#263238"></path><path d="M188.94,329a9.7,9.7,0,0,1,1.35,3.68c.33,1.28.66,2.58,1.06,3.87a20.37,20.37,0,0,0,1.55,3.77,8.8,8.8,0,0,0,2.79,3.17c2.6,1.52,5.59,1.2,8.17.62,1.31-.29,2.59-.66,3.87-.92a8.17,8.17,0,0,1,3.9-.15,7.72,7.72,0,0,0-4-.43c-1.34.16-2.65.42-3.95.61-2.55.38-5.29.53-7.37-.73a7.88,7.88,0,0,1-2.44-2.73,23.68,23.68,0,0,1-1.67-3.52c-.49-1.22-.92-2.47-1.37-3.73-.24-.63-.49-1.25-.76-1.86A3.9,3.9,0,0,0,188.94,329Z" style="fill:#263238"></path><path d="M216.26,335.3c7.73,24.18,29.83,68.57,38.36,75.48S279,390.38,276.45,387c-7.48-9.91-33.64-47-54.2-61.73C217.26,321.72,214,328.19,216.26,335.3Z" style="fill:#d3766a"></path><path d="M273.56,383.4c8.61,8,18.1,17.59,21,29.81a6.23,6.23,0,0,1-.29,4.07c1.41,5.45-.74,7.76-.74,7.76-.25,5.48-2.77,7.54-2.77,7.54s1.59,6.42-2.14,8c-4.16,1.82-5.58-7.56-9.51-12.24-9-10.72-26.14-25-29-27.85Z" style="fill:#d3766a"></path><path d="M277.59,410.52a90.19,90.19,0,0,1,7.36,9.83,91.23,91.23,0,0,1,5.69,12.19.11.11,0,0,0,.21-.07,47.64,47.64,0,0,0-13.11-22.07C277.59,410.26,277.46,410.36,277.59,410.52Z" style="fill:#263238"></path><path d="M283.28,404.14c2.34,3.27,6.42,9,10.14,21,0,0,.09,0,.08,0A42.81,42.81,0,0,0,283.43,404C283.27,403.84,283.12,403.93,283.28,404.14Z" style="fill:#263238"></path><path d="M286.39,400.77c3.78,5.7,5.44,9.77,7.86,16.52,0,0,.09,0,.08,0-1.95-8-3.56-10.62-7.76-16.65C286.43,400.41,286.25,400.55,286.39,400.77Z" style="fill:#263238"></path><path d="M267.47,416.13c-1.73-.93-2.23,0-.84,3.16S276.23,434,272,436.5s-14.73-14.22-17.5-19.34A39.8,39.8,0,0,1,250,399.6C252.81,402.34,261.82,410.82,267.47,416.13Z" style="fill:#d3766a"></path><polygon points="234.21 321.2 223.81 373.63 200.97 343.48 206.43 314.22 217.75 312.82 234.21 321.2" style="opacity:0.1"></polygon><path d="M250.92,407.42c2.92,10,9,18.59,15.51,26.59-7.24-7.31-13.57-16.32-15.51-26.59Z" style="fill:#263238"></path><path d="M159.77,386.5l68.48,7.63c.24-.17-1.53-54.44-7.2-69.18-1.45-3.75-9.31-9.68-17.43-5C185.32,330.56,159.77,386.5,159.77,386.5Z" style="fill:#FFC727"></path><path d="M221.73,352.88c-2.94,5-9.17,7.58-9.17,7.58s-5.74-3.56-7.84-8.95c-1.74-4.49,0-9.06,3.35-9.81,4.87-1.09,5.63,4.57,5.63,4.57s1.67-5.46,6.3-3.61C223.23,344,224.18,348.73,221.73,352.88Z" style="fill:#fff"></path><path d="M212.44,362a3.71,3.71,0,0,1,2.21-3.78,27.8,27.8,0,0,1,3.87-.92,14.88,14.88,0,0,0,2.91-1.18s-1.36,8.35-8.75,6.58a5.81,5.81,0,0,1,2.08-2.48,15.11,15.11,0,0,1,2.86-1.57A8,8,0,0,0,212.44,362Z" style="fill:#455a64"></path><path d="M212.44,362a3.7,3.7,0,0,0-1.58-4.08,27.63,27.63,0,0,0-3.68-1.54,15.28,15.28,0,0,1-2.68-1.63s0,8.47,7.58,7.91a5.77,5.77,0,0,0-1.65-2.79,15.65,15.65,0,0,0-2.57-2A8,8,0,0,1,212.44,362Z" style="fill:#455a64"></path><path d="M195.24,321.09c-24.82,11.56-56.71,37.38-55.39,46.74,1.46,10.44,37.43.29,37.12-1.28-.25-1.33,15.5-21.78,27-38.23C212.48,316.2,201.38,318.23,195.24,321.09Z" style="fill:#d3766a"></path><path d="M140,368.57c2.16,7.24,15.35,19.46,41.41,34.16,3.61,2,15.29-25.15,11.55-27.52-4.71-3-22.51-12.7-24-13.3C156.51,356.87,138.58,363.66,140,368.57Z" style="fill:#d3766a"></path><path d="M187,371.7s1.76.83,11.78,3.71c6.92,2,22.52,11.27,24.4,31.44.73,7.72-4.38,11.6-6.56,3.71-1.53-5.56-2.11-9.54-3.12-11.22,0,0-3.47,8.12-8.46,9.21a95.25,95.25,0,0,1-13.27,1.91,20.12,20.12,0,0,1-.58-2.45s-7.65-.86-11.7-6.87Z" style="fill:#d3766a"></path><path d="M205.1,378.37c2.05,3.17,6.28,10,7.81,16.73,1.69,7.52,2.93,22.45-2.63,23.64-4.08.88-5.05-4.78-5.05-4.78s-.79,6.28-4.65,6.26c-3.51,0-4-4.44-4-4.44s-1.14,3.73-4.52,3.07c-4.07-.8-1-8.48-4.44-12.85C186.85,405,205.1,378.37,205.1,378.37Z" style="fill:#d3766a"></path><path d="M204.67,395.57a30.8,30.8,0,0,1,.68,18.28c0,.15-.19.2-.18,0a75.37,75.37,0,0,0-.57-18.31S204.65,395.53,204.67,395.57Z" style="fill:#263238"></path><path d="M197.13,397.5c1,3,2,11.63-.41,18.29-.05.15-.2.18-.18,0a81,81,0,0,0,.52-18.32A0,0,0,0,1,197.13,397.5Z" style="fill:#263238"></path><path d="M156.29,360.74a27.64,27.64,0,0,1,11,.55c4.32,1.21,12.73,6.13,15.18,7.87.06,0,0,.13-.05.09-2.49-1.08-10.57-5.64-15.15-7a38,38,0,0,0-10.93-1.42C156.23,360.85,156.22,360.75,156.29,360.74Z" style="fill:#263238"></path><path d="M209,380.87a34.54,34.54,0,0,1,12.52,17c1.48,4.51,2.89,9.4,1.61,14.16-.46,1.69-2.31,4-4.32,2.91-2.07-1.51-2.58-4.22-3.07-6.56-.38-1.68-.81-3.53-1.25-5.18a21.15,21.15,0,0,0-1.07-3.29l.66-.25a58.58,58.58,0,0,1,.58,7.11c0,3.52,0,7.4-2,10.48a3.68,3.68,0,0,1-6.32,0,7.9,7.9,0,0,1-1.39-3.33h.41a12.55,12.55,0,0,1-1.11,3.65c-.79,1.8-2.61,3.23-4.63,2.6-2-.43-3-2.51-3.1-4.35a5.41,5.41,0,0,0,1.51,3.35,3.67,3.67,0,0,0,3.44.8c2.82-1.08,3.27-4.74,3.65-7.36a9.23,9.23,0,0,0,1.6,4.37,3.15,3.15,0,0,0,5.46-.05c1.83-3,1.8-6.71,1.8-10.13a56.52,56.52,0,0,0-.62-7l-.31-2.07c1.64,2.67,2.28,5.78,3,8.77.12.59.47,2.06.56,2.64.38,1.71,1.5,6.24,3.93,5.24a4.07,4.07,0,0,0,1.93-2.54c1.23-4.51-.11-9.41-1.45-13.79a35.39,35.39,0,0,0-12-17.19Z" style="fill:#263238"></path><path d="M208.09,321.57c.13,2.39,2.84,15.08,9.48,16.76,2.16.54,5.65-11.13,5.65-11.13l.45-.8L230,315.16,216.93,300S208,319,208.09,321.57Z" style="fill:#d3766a"></path><path d="M214.12,305.75a43.3,43.3,0,0,0,0,4.66c.64,10.51,5.56,14.79,9.2,16.53l.3-.55L230,315.15,216.93,300S215.7,302.4,214.12,305.75Z" style="fill:#263238"></path><path d="M256.36,298.94c-.59,25.55-16,28.08-21.47,27.94-5-.12-22-1.17-24.06-26.63s10-33.27,21.46-33.6S257,273.4,256.36,298.94Z" style="fill:#d3766a"></path><path d="M252,297.79c-.57-.2-1.06-.48-1.6-.73a2.81,2.81,0,0,1-1.5-1.06.9.9,0,0,1,.24-1.08,2.24,2.24,0,0,1,2.28,0,3.3,3.3,0,0,1,1.78,1.59A1,1,0,0,1,252,297.79Z" style="fill:#263238"></path><path d="M235.32,296.81a16.52,16.52,0,0,0,1.72-.4,2.87,2.87,0,0,0,1.68-.74.92.92,0,0,0,0-1.11,2.25,2.25,0,0,0-2.23-.48,3.3,3.3,0,0,0-2.06,1.22A1,1,0,0,0,235.32,296.81Z" style="fill:#263238"></path><path d="M237.11,298.91c-2.78-.41-3.39,5.18-.81,5.55S239.44,299.25,237.11,298.91Z" style="fill:#263238"></path><path d="M236,299.09c-.52.26-1.06.76-1.65.76s-1.14-.65-1.52-1.26c0-.06-.1,0-.11.05-.13,1.07.16,2.21,1.29,2.5s1.89-.61,2.27-1.65C236.33,299.29,236.19,299,236,299.09Z" style="fill:#263238"></path><path d="M249.65,299.67c2.81.11,2.37,5.71-.23,5.6S247.3,299.57,249.65,299.67Z" style="fill:#263238"></path><path d="M250.79,300.13c.42.33.82.9,1.34,1s1.11-.49,1.55-1c0-.05.08,0,.08.07,0,1.07-.49,2.16-1.54,2.29s-1.57-.86-1.74-1.95C250.45,300.28,250.62,300,250.79,300.13Z" style="fill:#263238"></path><path d="M236.38,314.26c.35.46.67,1.08,1.29,1.23a4.75,4.75,0,0,0,1.91-.14c.06,0,.11,0,.06.09a2.32,2.32,0,0,1-2.32.6,1.86,1.86,0,0,1-1.12-1.73C236.19,314.21,236.33,314.19,236.38,314.26Z" style="fill:#263238"></path><path d="M244.23,308.7s.1,2.62,0,3.84c0,.12-.31.14-.72.13,0,0,0,0-.05,0A5.79,5.79,0,0,1,238,310a.12.12,0,0,1,.19-.15,8.82,8.82,0,0,0,5.15,2c.12-.33-.32-4.53-.13-4.48.79.22,2.19.72,2.71.9,0-1.71-.36-6.54-.41-9.64,0-.2.3-.23.33-.05a82.4,82.4,0,0,1,1.22,10.85C247.1,309.7,244.7,309,244.23,308.7Z" style="fill:#263238"></path><path d="M242.48,312.2a5.85,5.85,0,0,1-2.44,1.7,2.57,2.57,0,0,1-1.6,0c-1.15-.36-1.12-1.42-.86-2.32a6.36,6.36,0,0,1,.59-1.37A7.56,7.56,0,0,0,242.48,312.2Z" style="fill:#263238"></path><path d="M240,313.9a2.57,2.57,0,0,1-1.6,0c-1.15-.36-1.12-1.42-.86-2.32A2.72,2.72,0,0,1,240,313.9Z" style="fill:#ff9abb"></path><path d="M212.66,301.36c2.83,0,10.58-7.43,11.5-21.06,0,0-1.67,12.19-2.68,13.93s4.33-4.16,5.22-15.15a59.78,59.78,0,0,0,10.47,7.05c4.55,2.15,8.2,2.85,8.59,2.5s-6.5-4.8-8.45-7.29c0,0,12.61,9.64,18.95,10.45.74.09,1.14-14.29-8.38-21.22s-23.35-4-27.75-.18c0,0-5,.46-10.68,7.47S209.61,301.38,212.66,301.36Z" style="fill:#263238"></path><path d="M227.06,277.68c0-.3-.5-.31-.49,0,.21,5.21-.93,9.68-2.75,14.54,0,.07.08.11.11,0C226.23,287.57,227.73,283,227.06,277.68Z" style="fill:#263238"></path><path d="M244.06,289.31c-7.24-1.84-13.26-5-17.42-11.37-.09-.13-.3,0-.23.11,3.22,6.81,10.46,10.37,17.59,11.53C244.15,289.6,244.21,289.35,244.06,289.31Z" style="fill:#263238"></path><path d="M214.84,302.3s-4.67-8.54-8.48-7-.91,13.54,3.14,15.57a4.32,4.32,0,0,0,6-1.67Z" style="fill:#d3766a"></path><path d="M207.28,298.75a.06.06,0,0,0,0,.11c2.83,1.53,4.09,4.44,4.87,7.41-.76-1.19-1.9-1.93-3.48-1a.1.1,0,0,0,.06.17,2.66,2.66,0,0,1,2.81,1.24,13.19,13.19,0,0,1,1.13,2.51c.11.28.6.19.54-.13,0,0,0,0,0-.07C213.64,305.18,211.29,299.58,207.28,298.75Z" style="fill:#263238"></path></g><g id="freepik--speech-bubble--inject-181"><path d="M582.3,108.25a36.5,36.5,0,0,1-61,23.1L503,134l9.14-15.79a36.51,36.51,0,1,1,70.13-10Z" style="fill:#fff"></path><path d="M582.3,108.25a36.73,36.73,0,0,1-7.37,18.51,40,40,0,0,1-3.31,3.81,41.3,41.3,0,0,1-3.85,3.27,36,36,0,0,1-8.81,4.9,36.44,36.44,0,0,1-9.83,2.34,34.34,34.34,0,0,1-5.07.1,31.81,31.81,0,0,1-5.06-.53,36.81,36.81,0,0,1-18.06-8.91l.43.13-18.25,2.8-1.32.2.67-1.16,9.09-15.83-.05.63a36.88,36.88,0,1,1,70.79-10.26Zm0,0a36.13,36.13,0,0,0-41.41-39.51,36,36,0,0,0-15.08,6,37.68,37.68,0,0,0-10.92,11.91,36,36,0,0,0-4.63,15.45A36.35,36.35,0,0,0,512.83,118l.13.33-.18.29-9.19,15.76-.65-1,18.28-2.56.25,0,.18.17a35.91,35.91,0,0,0,17.49,9,30.42,30.42,0,0,0,5,.6,34.77,34.77,0,0,0,5,0,36.28,36.28,0,0,0,9.75-2.14,34.06,34.06,0,0,0,8.8-4.75,32.76,32.76,0,0,0,7.18-7A36.7,36.7,0,0,0,582.3,108.25Z" style="fill:#263238"></path><path d="M550.61,112.23s4.1-14.43,11.09-19.8c-.29.18-9.81,6-13.68,22.92-.15.67-.29,1.25-.42,1.76,1.38,6.36,1.58,14.11-.16,23.51l-1.08,0c2.61-27.25-13.19-39-13.46-39.23,5.54,7.39,9.78,18.12,10.67,24.33a24.69,24.69,0,0,1-16.42-10.39c-4.91-7.31-5.19-17.22-2.92-25.5.06-.2,16.26,4.57,22.26,23.1.07-1,.12-1.6.12-1.6S545.12,90.64,567,83.66C567,83.66,575.91,106.16,550.61,112.23Z" style="fill:#FFC727"></path></g></svg>
